<?xml version="1.0" encoding="us-ascii" standalone="no"?><svg xmlns="http://www.w3.org/2000/svg" xmlns:xlink="http://www.w3.org/1999/xlink" contentStyleType="text/css" height="1292px" preserveAspectRatio="none" style="width:857px;height:1292px;background:#FFFFFF;" version="1.1" viewBox="0 0 857 1292" width="857px" zoomAndPan="magnify"><defs/><g><ellipse cx="433.5" cy="20" fill="#222222" rx="10" ry="10" style="stroke:#222222;stroke-width:1.0;"/><rect fill="#F1F1F1" height="34.1328" rx="12.5" ry="12.5" style="stroke:#181818;stroke-width:0.5;" width="133" x="367" y="50"/><text fill="#000000" font-family="sans-serif" font-size="12" lengthAdjust="spacing" textLength="113" x="377" y="71.6016">User opens the cart</text><rect fill="#F1F1F1" height="34.1328" rx="12.5" ry="12.5" style="stroke:#181818;stroke-width:0.5;" width="220" x="323.5" y="104.1328"/><text fill="#000000" font-family="sans-serif" font-size="12" lengthAdjust="spacing" textLength="200" x="333.5" y="125.7344">Display Book(s) ready for checkout</text><rect fill="#F1F1F1" height="34.1328" rx="12.5" ry="12.5" style="stroke:#181818;stroke-width:0.5;" width="158" x="354.5" y="158.2656"/><text fill="#000000" font-family="sans-serif" font-size="12" lengthAdjust="spacing" textLength="138" x="364.5" y="179.8672">User taps on Buy button</text><rect fill="#F1F1F1" height="34.1328" rx="12.5" ry="12.5" style="stroke:#181818;stroke-width:0.5;" width="161" x="353" y="212.3984"/><text fill="#000000" font-family="sans-serif" font-size="12" lengthAdjust="spacing" textLength="141" x="363" y="234">Display Chechout screen</text><polygon fill="#F1F1F1" points="391.5,266.5313,475.5,266.5313,487.5,278.5313,475.5,290.5313,391.5,290.5313,379.5,278.5313,391.5,266.5313" style="stroke:#181818;stroke-width:0.5;"/><text fill="#000000" font-family="sans-serif" font-size="11" lengthAdjust="spacing" textLength="84" x="391.5" y="282.6885">Confirm Order?</text><text fill="#000000" font-family="sans-serif" font-size="11" lengthAdjust="spacing" textLength="19" x="360.5" y="276.2109">Yes</text><text fill="#000000" font-family="sans-serif" font-size="11" lengthAdjust="spacing" textLength="15" x="487.5" y="276.2109">No</text><rect fill="#F1F1F1" height="34.1328" rx="12.5" ry="12.5" style="stroke:#181818;stroke-width:0.5;" width="194" x="237.75" y="300.5313"/><text fill="#000000" font-family="sans-serif" font-size="12" lengthAdjust="spacing" textLength="174" x="247.75" y="322.1328">Create Order (status: created)</text><rect fill="#F1F1F1" height="34.1328" rx="12.5" ry="12.5" style="stroke:#181818;stroke-width:0.5;" width="181" x="244.25" y="354.6641"/><text fill="#000000" font-family="sans-serif" font-size="12" lengthAdjust="spacing" textLength="161" x="254.25" y="376.2656">Trigger event OrderCreated</text><rect fill="#F1F1F1" height="34.1328" rx="12.5" ry="12.5" style="stroke:#181818;stroke-width:0.5;" width="145" x="262.25" y="408.7969"/><text fill="#000000" font-family="sans-serif" font-size="12" lengthAdjust="spacing" textLength="125" x="272.25" y="430.3984">Transition to Payment</text><rect fill="#F1F1F1" height="34.1328" rx="12.5" ry="12.5" style="stroke:#181818;stroke-width:0.5;" width="161" x="451.75" y="300.5313"/><text fill="#000000" font-family="sans-serif" font-size="12" lengthAdjust="spacing" textLength="141" x="461.75" y="322.1328">User aborts or edits cart</text><ellipse cx="532.25" cy="365.6641" fill="none" rx="11" ry="11" style="stroke:#222222;stroke-width:1.0;"/><ellipse cx="532.25" cy="365.6641" fill="#222222" rx="6" ry="6" style="stroke:#222222;stroke-width:1.0;"/><rect fill="#F1F1F1" height="34.1328" rx="12.5" ry="12.5" style="stroke:#181818;stroke-width:0.5;" width="111" x="378" y="462.9297"/><text fill="#000000" font-family="sans-serif" font-size="12" lengthAdjust="spacing" textLength="91" x="388" y="484.5313">Initiate Payment</text><rect fill="#F1F1F1" height="34.1328" rx="12.5" ry="12.5" style="stroke:#181818;stroke-width:0.5;" width="254" x="306.5" y="517.0625"/><text fill="#000000" font-family="sans-serif" font-size="12" lengthAdjust="spacing" textLength="234" x="316.5" y="538.6641">Create Payment record (status: pending)</text><rect fill="#F1F1F1" height="34.1328" rx="12.5" ry="12.5" style="stroke:#181818;stroke-width:0.5;" width="189" x="339" y="571.1953"/><text fill="#000000" font-family="sans-serif" font-size="12" lengthAdjust="spacing" textLength="169" x="349" y="592.7969">Redirect to Payment Gateway</text><rect fill="#F1F1F1" height="34.1328" rx="12.5" ry="12.5" style="stroke:#181818;stroke-width:0.5;" width="163" x="352" y="625.3281"/><text fill="#000000" font-family="sans-serif" font-size="12" lengthAdjust="spacing" textLength="143" x="362" y="646.9297">User completes payment</text><rect fill="none" height="351.1543" style="stroke:#000000;stroke-width:1.5;" width="835" x="11" y="669.4609"/><path d="M79,669.4609 L79,678.9492 L69,688.9492 L11,688.9492 " fill="none" style="stroke:#000000;stroke-width:1.5;"/><text fill="#000000" font-family="sans-serif" font-size="14" lengthAdjust="spacing" textLength="58" x="14" y="683.9961">Callback</text><rect fill="#F1F1F1" height="34.1328" rx="12.5" ry="12.5" style="stroke:#181818;stroke-width:0.5;" width="199" x="334" y="705.9492"/><text fill="#000000" font-family="sans-serif" font-size="12" lengthAdjust="spacing" textLength="179" x="344" y="727.5508">Receive callback from Gateway</text><polygon fill="#F1F1F1" points="81,760.082,177,760.082,189,772.082,177,784.082,81,784.082,69,772.082,81,760.082" style="stroke:#181818;stroke-width:0.5;"/><text fill="#000000" font-family="sans-serif" font-size="11" lengthAdjust="spacing" textLength="19" x="133" y="794.7168">Yes</text><text fill="#000000" font-family="sans-serif" font-size="11" lengthAdjust="spacing" textLength="96" x="81" y="776.2393">Payment Success?</text><rect fill="#F1F1F1" height="34.1328" rx="12.5" ry="12.5" style="stroke:#181818;stroke-width:0.5;" width="216" x="21" y="816.2168"/><text fill="#000000" font-family="sans-serif" font-size="12" lengthAdjust="spacing" textLength="196" x="31" y="837.8184">Update Payment &amp; Order to 'paid'</text><rect fill="#F1F1F1" height="34.1328" rx="12.5" ry="12.5" style="stroke:#181818;stroke-width:0.5;" width="160" x="49" y="885.3496"/><text fill="#000000" font-family="sans-serif" font-size="12" lengthAdjust="spacing" textLength="140" x="59" y="906.9512">Trigger event OrderPaid</text><rect fill="#F1F1F1" height="34.1328" rx="12.5" ry="12.5" style="stroke:#181818;stroke-width:0.5;" width="168" x="45" y="954.4824"/><text fill="#000000" font-family="sans-serif" font-size="12" lengthAdjust="spacing" textLength="148" x="55" y="976.084">Show Confirmation Screen</text><polygon fill="#F1F1F1" points="301,760.082,385,760.082,397,772.082,385,784.082,301,784.082,289,772.082,301,760.082" style="stroke:#181818;stroke-width:0.5;"/><text fill="#000000" font-family="sans-serif" font-size="11" lengthAdjust="spacing" textLength="15" x="347" y="794.7168">No</text><text fill="#000000" font-family="sans-serif" font-size="11" lengthAdjust="spacing" textLength="84" x="301" y="776.2393">Payment Failed?</text><rect fill="#F1F1F1" height="34.1328" rx="12.5" ry="12.5" style="stroke:#181818;stroke-width:0.5;" width="172" x="257" y="816.2168"/><text fill="#000000" font-family="sans-serif" font-size="12" lengthAdjust="spacing" textLength="152" x="267" y="837.8184">Update Payment to 'failed'</text><rect fill="#F1F1F1" height="34.1328" rx="12.5" ry="12.5" style="stroke:#181818;stroke-width:0.5;" width="137" x="274.5" y="885.3496"/><text fill="#000000" font-family="sans-serif" font-size="12" lengthAdjust="spacing" textLength="117" x="284.5" y="906.9512">Show error message</text><rect fill="#F1F1F1" height="34.1328" rx="12.5" ry="12.5" style="stroke:#181818;stroke-width:0.5;" width="108" x="289" y="954.4824"/><text fill="#000000" font-family="sans-serif" font-size="12" lengthAdjust="spacing" textLength="88" x="299" y="976.084">Prompt to retry</text><polygon fill="#F1F1F1" points="508.5,760.082,583.5,760.082,595.5,772.082,583.5,784.082,508.5,784.082,496.5,772.082,508.5,760.082" style="stroke:#181818;stroke-width:0.5;"/><text fill="#000000" font-family="sans-serif" font-size="11" lengthAdjust="spacing" textLength="36" x="550" y="794.7168">Cancel</text><text fill="#000000" font-family="sans-serif" font-size="11" lengthAdjust="spacing" textLength="75" x="508.5" y="776.2393">User Cancels?</text><text fill="#000000" font-family="sans-serif" font-size="11" lengthAdjust="spacing" textLength="44" x="595.5" y="769.7617">Timeout</text><rect fill="#F1F1F1" height="34.1328" rx="12.5" ry="12.5" style="stroke:#181818;stroke-width:0.5;" width="194" x="449" y="816.2168"/><text fill="#000000" font-family="sans-serif" font-size="12" lengthAdjust="spacing" textLength="174" x="459" y="837.8184">Update Payment to 'cancelled'</text><rect fill="#F1F1F1" height="34.1328" rx="12.5" ry="12.5" style="stroke:#181818;stroke-width:0.5;" width="124" x="484" y="885.3496"/><text fill="#000000" font-family="sans-serif" font-size="12" lengthAdjust="spacing" textLength="104" x="494" y="906.9512">Notify cancellation</text><rect fill="#F1F1F1" height="34.1328" rx="12.5" ry="12.5" style="stroke:#181818;stroke-width:0.5;" width="183" x="653" y="847.3057"/><text fill="#000000" font-family="sans-serif" font-size="12" lengthAdjust="spacing" textLength="163" x="663" y="868.9072">Update Payment to 'timeout'</text><rect fill="#F1F1F1" height="34.1328" rx="12.5" ry="12.5" style="stroke:#181818;stroke-width:0.5;" width="108" x="690.5" y="916.4385"/><text fill="#000000" font-family="sans-serif" font-size="12" lengthAdjust="spacing" textLength="88" x="700.5" y="938.04">Prompt to retry</text><rect fill="#F1F1F1" height="34.1328" rx="12.5" ry="12.5" style="stroke:#181818;stroke-width:0.5;" width="153" x="357" y="1089.0928"/><text fill="#000000" font-family="sans-serif" font-size="12" lengthAdjust="spacing" textLength="133" x="367" y="1110.6943">Trigger refund process</text><rect fill="#F1F1F1" height="34.1328" rx="12.5" ry="12.5" style="stroke:#181818;stroke-width:0.5;" width="193" x="337" y="1143.2256"/><text fill="#000000" font-family="sans-serif" font-size="12" lengthAdjust="spacing" textLength="173" x="347" y="1164.8271">Update Payment to 'refunded'</text><ellipse cx="433.5" cy="1207.3584" fill="none" rx="10" ry="10" style="stroke:#222222;stroke-width:1.5;"/><line style="stroke:#222222;stroke-width:2.5;" x1="427.3128" x2="439.6872" y1="1201.1712" y2="1213.5456"/><line style="stroke:#222222;stroke-width:2.5;" x1="439.6872" x2="427.3128" y1="1201.1712" y2="1213.5456"/><polygon fill="#F1F1F1" points="382.5,1040.6152,484.5,1040.6152,496.5,1052.6152,484.5,1064.6152,382.5,1064.6152,370.5,1052.6152,382.5,1040.6152" style="stroke:#181818;stroke-width:0.5;"/><text fill="#000000" font-family="sans-serif" font-size="11" lengthAdjust="spacing" textLength="19" x="437.5" y="1075.25">Yes</text><text fill="#000000" font-family="sans-serif" font-size="11" lengthAdjust="spacing" textLength="102" x="382.5" y="1056.7725">Refund Requested?</text><text fill="#000000" font-family="sans-serif" font-size="11" lengthAdjust="spacing" textLength="15" x="496.5" y="1050.2949">No</text><ellipse cx="433.5" cy="1270.3584" fill="none" rx="11" ry="11" style="stroke:#222222;stroke-width:1.0;"/><ellipse cx="433.5" cy="1270.3584" fill="#222222" rx="6" ry="6" style="stroke:#222222;stroke-width:1.0;"/><line style="stroke:#181818;stroke-width:1.0;" x1="433.5" x2="433.5" y1="30" y2="50"/><polygon fill="#181818" points="429.5,40,433.5,50,437.5,40,433.5,44" style="stroke:#181818;stroke-width:1.0;"/><line style="stroke:#181818;stroke-width:1.0;" x1="433.5" x2="433.5" y1="84.1328" y2="104.1328"/><polygon fill="#181818" points="429.5,94.1328,433.5,104.1328,437.5,94.1328,433.5,98.1328" style="stroke:#181818;stroke-width:1.0;"/><line style="stroke:#181818;stroke-width:1.0;" x1="433.5" x2="433.5" y1="138.2656" y2="158.2656"/><polygon fill="#181818" points="429.5,148.2656,433.5,158.2656,437.5,148.2656,433.5,152.2656" style="stroke:#181818;stroke-width:1.0;"/><line style="stroke:#181818;stroke-width:1.0;" x1="433.5" x2="433.5" y1="192.3984" y2="212.3984"/><polygon fill="#181818" points="429.5,202.3984,433.5,212.3984,437.5,202.3984,433.5,206.3984" style="stroke:#181818;stroke-width:1.0;"/><line style="stroke:#181818;stroke-width:1.0;" x1="334.75" x2="334.75" y1="334.6641" y2="354.6641"/><polygon fill="#181818" points="330.75,344.6641,334.75,354.6641,338.75,344.6641,334.75,348.6641" style="stroke:#181818;stroke-width:1.0;"/><line style="stroke:#181818;stroke-width:1.0;" x1="334.75" x2="334.75" y1="388.7969" y2="408.7969"/><polygon fill="#181818" points="330.75,398.7969,334.75,408.7969,338.75,398.7969,334.75,402.7969" style="stroke:#181818;stroke-width:1.0;"/><line style="stroke:#181818;stroke-width:1.0;" x1="532.25" x2="532.25" y1="334.6641" y2="354.6641"/><polygon fill="#181818" points="528.25,344.6641,532.25,354.6641,536.25,344.6641,532.25,348.6641" style="stroke:#181818;stroke-width:1.0;"/><line style="stroke:#181818;stroke-width:1.0;" x1="379.5" x2="334.75" y1="278.5313" y2="278.5313"/><line style="stroke:#181818;stroke-width:1.0;" x1="334.75" x2="334.75" y1="278.5313" y2="300.5313"/><polygon fill="#181818" points="330.75,290.5313,334.75,300.5313,338.75,290.5313,334.75,294.5313" style="stroke:#181818;stroke-width:1.0;"/><line style="stroke:#181818;stroke-width:1.0;" x1="487.5" x2="532.25" y1="278.5313" y2="278.5313"/><line style="stroke:#181818;stroke-width:1.0;" x1="532.25" x2="532.25" y1="278.5313" y2="300.5313"/><polygon fill="#181818" points="528.25,290.5313,532.25,300.5313,536.25,290.5313,532.25,294.5313" style="stroke:#181818;stroke-width:1.0;"/><line style="stroke:#181818;stroke-width:1.0;" x1="334.75" x2="334.75" y1="442.9297" y2="447.9297"/><line style="stroke:#181818;stroke-width:1.0;" x1="334.75" x2="433.5" y1="447.9297" y2="447.9297"/><line style="stroke:#181818;stroke-width:1.0;" x1="433.5" x2="433.5" y1="447.9297" y2="462.9297"/><polygon fill="#181818" points="429.5,452.9297,433.5,462.9297,437.5,452.9297,433.5,456.9297" style="stroke:#181818;stroke-width:1.0;"/><line style="stroke:#181818;stroke-width:1.0;" x1="433.5" x2="433.5" y1="246.5313" y2="266.5313"/><polygon fill="#181818" points="429.5,256.5313,433.5,266.5313,437.5,256.5313,433.5,260.5313" style="stroke:#181818;stroke-width:1.0;"/><line style="stroke:#181818;stroke-width:1.0;" x1="433.5" x2="433.5" y1="497.0625" y2="517.0625"/><polygon fill="#181818" points="429.5,507.0625,433.5,517.0625,437.5,507.0625,433.5,511.0625" style="stroke:#181818;stroke-width:1.0;"/><line style="stroke:#181818;stroke-width:1.0;" x1="433.5" x2="433.5" y1="551.1953" y2="571.1953"/><polygon fill="#181818" points="429.5,561.1953,433.5,571.1953,437.5,561.1953,433.5,565.1953" style="stroke:#181818;stroke-width:1.0;"/><line style="stroke:#181818;stroke-width:1.0;" x1="433.5" x2="433.5" y1="605.3281" y2="625.3281"/><polygon fill="#181818" points="429.5,615.3281,433.5,625.3281,437.5,615.3281,433.5,619.3281" style="stroke:#181818;stroke-width:1.0;"/><line style="stroke:#181818;stroke-width:1.0;" x1="129" x2="129" y1="850.3496" y2="885.3496"/><polygon fill="#181818" points="125,875.3496,129,885.3496,133,875.3496,129,879.3496" style="stroke:#181818;stroke-width:1.0;"/><line style="stroke:#181818;stroke-width:1.0;" x1="129" x2="129" y1="919.4824" y2="954.4824"/><polygon fill="#181818" points="125,944.4824,129,954.4824,133,944.4824,129,948.4824" style="stroke:#181818;stroke-width:1.0;"/><line style="stroke:#181818;stroke-width:1.0;" x1="343" x2="343" y1="850.3496" y2="885.3496"/><polygon fill="#181818" points="339,875.3496,343,885.3496,347,875.3496,343,879.3496" style="stroke:#181818;stroke-width:1.0;"/><line style="stroke:#181818;stroke-width:1.0;" x1="343" x2="343" y1="919.4824" y2="954.4824"/><polygon fill="#181818" points="339,944.4824,343,954.4824,347,944.4824,343,948.4824" style="stroke:#181818;stroke-width:1.0;"/><line style="stroke:#181818;stroke-width:1.0;" x1="546" x2="546" y1="850.3496" y2="885.3496"/><polygon fill="#181818" points="542,875.3496,546,885.3496,550,875.3496,546,879.3496" style="stroke:#181818;stroke-width:1.0;"/><line style="stroke:#181818;stroke-width:1.0;" x1="744.5" x2="744.5" y1="881.4385" y2="916.4385"/><polygon fill="#181818" points="740.5,906.4385,744.5,916.4385,748.5,906.4385,744.5,910.4385" style="stroke:#181818;stroke-width:1.0;"/><line style="stroke:#181818;stroke-width:1.0;" x1="129" x2="129" y1="784.082" y2="816.2168"/><polygon fill="#181818" points="125,806.2168,129,816.2168,133,806.2168,129,810.2168" style="stroke:#181818;stroke-width:1.0;"/><line style="stroke:#181818;stroke-width:1.0;" x1="129" x2="129" y1="988.6152" y2="1008.6152"/><polygon fill="#181818" points="125,998.6152,129,1008.6152,133,998.6152,129,1002.6152" style="stroke:#181818;stroke-width:1.0;"/><line style="stroke:#181818;stroke-width:1.0;" x1="343" x2="343" y1="784.082" y2="816.2168"/><polygon fill="#181818" points="339,806.2168,343,816.2168,347,806.2168,343,810.2168" style="stroke:#181818;stroke-width:1.0;"/><line style="stroke:#181818;stroke-width:1.0;" x1="343" x2="343" y1="988.6152" y2="1008.6152"/><polygon fill="#181818" points="339,998.6152,343,1008.6152,347,998.6152,343,1002.6152" style="stroke:#181818;stroke-width:1.0;"/><line style="stroke:#181818;stroke-width:1.0;" x1="546" x2="546" y1="784.082" y2="816.2168"/><polygon fill="#181818" points="542,806.2168,546,816.2168,550,806.2168,546,810.2168" style="stroke:#181818;stroke-width:1.0;"/><line style="stroke:#181818;stroke-width:1.0;" x1="546" x2="546" y1="919.4824" y2="1008.6152"/><polygon fill="#181818" points="542,998.6152,546,1008.6152,550,998.6152,546,1002.6152" style="stroke:#181818;stroke-width:1.0;"/><line style="stroke:#181818;stroke-width:1.0;" x1="189" x2="289" y1="772.082" y2="772.082"/><polygon fill="#181818" points="279,768.082,289,772.082,279,776.082,283,772.082" style="stroke:#181818;stroke-width:1.0;"/><line style="stroke:#181818;stroke-width:1.0;" x1="397" x2="496.5" y1="772.082" y2="772.082"/><polygon fill="#181818" points="486.5,768.082,496.5,772.082,486.5,776.082,490.5,772.082" style="stroke:#181818;stroke-width:1.0;"/><line style="stroke:#181818;stroke-width:1.0;" x1="433.5" x2="433.5" y1="740.082" y2="745.082"/><line style="stroke:#181818;stroke-width:1.0;" x1="433.5" x2="129" y1="745.082" y2="745.082"/><line style="stroke:#181818;stroke-width:1.0;" x1="129" x2="129" y1="745.082" y2="760.082"/><polygon fill="#181818" points="125,750.082,129,760.082,133,750.082,129,754.082" style="stroke:#181818;stroke-width:1.0;"/><line style="stroke:#181818;stroke-width:1.0;" x1="595.5" x2="744.5" y1="772.082" y2="772.082"/><line style="stroke:#181818;stroke-width:1.0;" x1="744.5" x2="744.5" y1="772.082" y2="847.3057"/><polygon fill="#181818" points="740.5,837.3057,744.5,847.3057,748.5,837.3057,744.5,841.3057" style="stroke:#181818;stroke-width:1.0;"/><line style="stroke:#181818;stroke-width:1.0;" x1="744.5" x2="744.5" y1="950.5713" y2="1008.6152"/><polygon fill="#181818" points="740.5,998.6152,744.5,1008.6152,748.5,998.6152,744.5,1002.6152" style="stroke:#181818;stroke-width:1.0;"/><line style="stroke:#181818;stroke-width:1.0;" x1="129" x2="744.5" y1="1008.6152" y2="1008.6152"/><line style="stroke:#181818;stroke-width:1.0;" x1="433.5" x2="433.5" y1="659.4609" y2="705.9492"/><polygon fill="#181818" points="429.5,695.9492,433.5,705.9492,437.5,695.9492,433.5,699.9492" style="stroke:#181818;stroke-width:1.0;"/><line style="stroke:#181818;stroke-width:1.0;" x1="433.5" x2="433.5" y1="1123.2256" y2="1143.2256"/><polygon fill="#181818" points="429.5,1133.2256,433.5,1143.2256,437.5,1133.2256,433.5,1137.2256" style="stroke:#181818;stroke-width:1.0;"/><line style="stroke:#181818;stroke-width:1.0;" x1="433.5" x2="433.5" y1="1177.3584" y2="1197.3584"/><polygon fill="#181818" points="429.5,1187.3584,433.5,1197.3584,437.5,1187.3584,433.5,1191.3584" style="stroke:#181818;stroke-width:1.0;"/><line style="stroke:#181818;stroke-width:1.0;" x1="433.5" x2="433.5" y1="1064.6152" y2="1089.0928"/><polygon fill="#181818" points="429.5,1079.0928,433.5,1089.0928,437.5,1079.0928,433.5,1083.0928" style="stroke:#181818;stroke-width:1.0;"/><line style="stroke:#181818;stroke-width:1.0;" x1="496.5" x2="540" y1="1052.6152" y2="1052.6152"/><polygon fill="#181818" points="536,1140.2256,540,1150.2256,544,1140.2256,540,1144.2256" style="stroke:#181818;stroke-width:1.0;"/><line style="stroke:#181818;stroke-width:1.0;" x1="540" x2="540" y1="1052.6152" y2="1239.3584"/><line style="stroke:#181818;stroke-width:1.0;" x1="540" x2="433.5" y1="1239.3584" y2="1239.3584"/><line style="stroke:#181818;stroke-width:1.0;" x1="433.5" x2="433.5" y1="1239.3584" y2="1259.3584"/><polygon fill="#181818" points="429.5,1249.3584,433.5,1259.3584,437.5,1249.3584,433.5,1253.3584" style="stroke:#181818;stroke-width:1.0;"/><line style="stroke:#181818;stroke-width:1.0;" x1="433.5" x2="433.5" y1="1008.6152" y2="1040.6152"/><polygon fill="#181818" points="429.5,1030.6152,433.5,1040.6152,437.5,1030.6152,433.5,1034.6152" style="stroke:#181818;stroke-width:1.0;"/><!--SRC=[VPFBRkCm34Nt_Wgk6kSNd4M1kkYWcqoGj8jPAXAT2B4bZKItC0RpxqCzd7hwsYNa9UyXAGSIdghcEQ07wz04e3E2vE2cQkvrSBsOuCxQIntMu56e2JhhGPvHNkmOHQcKX0jW3ToD4nn78ciMvIsBpoo683qYPtG7TMjDf_q0Fxr2VxkEjWRgNnZM5K3JiXLXJa8TID0O6f0fgjQRA7do-dJYBBwWeQpCLQgaXGcQD4EHXPsO1fPjAkm3GhsroIMXYwFrnF3SIMd-aMS726HTXKRfhceU3NUAGDS-Cs49y6gazUeDrSLASsBKPizzEKqB3lZ1jQzYcjSdxU1w90pWPWF761c_5Nr_5F82VoBp7YNgbtYY4ksy7Txw0SJbpZQ7KKeCuVrwu-XEBV5logePSUM4LgjDbdsov1sdI_PmjgzG3YaIww5S620jUido87IFwegIJ_2H919qIRfQkg3tVA61Xn4dB8aTJ-vIXKVoqt-kQQsjC98ZLy_y_sjVcV8BwwqbtKrGucd4gqlzf0VaL_rrEyg2rJUuwNdzJH_47hlHADZZxn43BJOrVnFpBNmMEc_ZRTDZ_yGygyeexBDu-Tarlkz_]--></g></svg>