<?xml version="1.0" encoding="us-ascii" standalone="no"?><svg xmlns="http://www.w3.org/2000/svg" xmlns:xlink="http://www.w3.org/1999/xlink" contentStyleType="text/css" height="700px" preserveAspectRatio="none" style="width:1570px;height:700px;background:#FFFFFF;" version="1.1" viewBox="0 0 1570 700" width="1570px" zoomAndPan="magnify"><defs/><g><!--cluster Web Application--><g id="cluster_Web Application"><path d="M1055.5,196.49 L1173.5,196.49 A3.75,3.75 0 0 1 1176,198.99 L1183,218.9783 L1186.5,218.9783 A2.5,2.5 0 0 1 1189,221.4783 L1189,291.47 A2.5,2.5 0 0 1 1186.5,293.97 L1055.5,293.97 A2.5,2.5 0 0 1 1053,291.47 L1053,198.99 A2.5,2.5 0 0 1 1055.5,196.49 " fill="none" style="stroke:#000000;stroke-width:1.5;"/><line style="stroke:#000000;stroke-width:1.5;" x1="1053" x2="1183" y1="218.9783" y2="218.9783"/><text fill="#000000" font-family="sans-serif" font-size="14" font-weight="bold" lengthAdjust="spacing" textLength="117" x="1057" y="212.0252">Web Application</text></g><!--cluster Backend Services--><g id="cluster_Backend Services"><path d="M8.5,6 L131.5,6 A3.75,3.75 0 0 1 134,8.5 L141,28.4883 L591.5,28.4883 A2.5,2.5 0 0 1 594,30.9883 L594,691.45 A2.5,2.5 0 0 1 591.5,693.95 L8.5,693.95 A2.5,2.5 0 0 1 6,691.45 L6,8.5 A2.5,2.5 0 0 1 8.5,6 " fill="none" style="stroke:#000000;stroke-width:1.5;"/><line style="stroke:#000000;stroke-width:1.5;" x1="6" x2="141" y1="28.4883" y2="28.4883"/><text fill="#000000" font-family="sans-serif" font-size="14" font-weight="bold" lengthAdjust="spacing" textLength="122" x="10" y="21.5352">Backend Services</text></g><!--cluster Data Storage--><g id="cluster_Data Storage"><path d="M156,441.97 C156,431.97 285,431.97 285,431.97 C285,431.97 414,431.97 414,441.97 L414,534.46 C414,544.46 285,544.46 285,544.46 C285,544.46 156,544.46 156,534.46 L156,441.97 " fill="none" style="stroke:#181818;stroke-width:1.0;"/><path d="M156,441.97 C156,451.97 285,451.97 285,451.97 C285,451.97 414,451.97 414,441.97 " fill="none" style="stroke:#181818;stroke-width:1.0;"/><text fill="#000000" font-family="sans-serif" font-size="14" font-weight="bold" lengthAdjust="spacing" textLength="92" x="239" y="467.5052">Data Storage</text></g><!--cluster External Systems--><g id="cluster_External Systems"><path d="M639.5979,418.9128 C656.105,389.2221 679.9544,396.6234 694.5955,420.8174 C709.2355,399.1502 732.3275,398.3609 747.5346,420.1262 C761.3295,398.3155 775.9648,395.9653 794.0726,415.2409 C810.9769,390.1118 832.4733,390.521 849.5181,415.0842 C866.0538,391.3546 885.1766,392.6709 899.4666,417.3989 C913.5055,391.6536 934.0308,394.0341 948.3511,417.1172 C961.9491,383.8956 989.9614,389.3975 1007.2745,413.284 C1021.3315,388.0663 1045.104,390.4524 1058.7555,413.7147 C1074.0491,388.445 1098.0628,392.3947 1109.3895,417.6873 C1123.7971,388.397 1141.5336,392.4469 1160.5169,412.9931 C1179.6512,389.1925 1199.1654,391.1235 1213.422,418.0775 C1228.4414,396.4798 1254.0256,396.6985 1267.7327,419.6764 C1280.7042,393.9307 1307.5093,395.0284 1322.5318,417.3377 C1339.5635,393.5992 1359.4548,394.9266 1375,418.97 C1381.1285,417.8002 1384.0912,419.6722 1382.8662,426.3453 C1409.2797,448.3113 1410.6907,470.5238 1380.8153,490.6959 C1409.9504,517.7938 1403.6317,545.2594 1368,560.46 C1372.2661,558.4194 1373.9008,560.2188 1374.3518,564.3722 C1355.7477,594.8347 1337.2644,593.9553 1317.2289,565.7663 C1306.104,590.5399 1282.2772,589.6278 1269.2097,567.7665 C1255.4767,592.0746 1235.5704,595.7303 1216.2553,574.2176 C1201.2766,602.4885 1177.1036,596.4634 1162.3019,574.0292 C1148.1755,593.4636 1125.2715,595.5823 1114.4289,570.498 C1101.5306,593.0364 1075.7745,597.7478 1061.2357,572.3171 C1046.6703,595.325 1025.9586,598.3263 1008.3546,575.8497 C993.3714,602.8093 970.8087,604.9031 955.4101,576.2451 C937.4763,601.5463 912.1532,603.7283 895.9234,574.3899 C880.0805,597.8429 863.8905,594.1616 851.4114,571.1664 C835.9362,594.4125 813.467,591.4981 799.3256,569.6266 C782.9143,597.3608 754.1392,601.9885 738.6286,568.7302 C722.2705,590.9632 700.8718,590.5639 687.996,565.0384 C666.5529,588.6571 637.4431,583.3857 626,553.46 C627.0054,553.5034 627.5141,554.022 626.9534,555.0215 C599.4501,535.7235 603.8758,513.2873 628.2696,495.1298 C585.7769,466.1909 597.9408,436.4975 633,411.97 C638.8278,410.8314 640.6314,413.5311 639.5979,418.9128 " fill="none" style="stroke:#181818;stroke-width:1.0;"/><text fill="#000000" font-family="sans-serif" font-size="14" font-weight="bold" lengthAdjust="spacing" textLength="123" x="939" y="430.5052">External Systems</text></g><!--cluster Analitics systems--><g id="cluster_Analitics systems"><path d="M1036.5,446.97 L1165.5,446.97 A3.75,3.75 0 0 1 1168,449.47 L1175,469.4583 L1356.5,469.4583 A2.5,2.5 0 0 1 1359,471.9583 L1359,541.96 A2.5,2.5 0 0 1 1356.5,544.46 L1036.5,544.46 A2.5,2.5 0 0 1 1034,541.96 L1034,449.47 A2.5,2.5 0 0 1 1036.5,446.97 " fill="none" style="stroke:#000000;stroke-width:1.5;"/><line style="stroke:#000000;stroke-width:1.5;" x1="1034" x2="1175" y1="469.4583" y2="469.4583"/><text fill="#000000" font-family="sans-serif" font-size="14" font-weight="bold" lengthAdjust="spacing" textLength="128" x="1038" y="462.5052">Analitics systems</text></g><!--entity Frontend--><g id="elem_Frontend"><rect fill="#F1F1F1" height="46.4883" rx="2.5" ry="2.5" style="stroke:#181818;stroke-width:0.5;" width="103" x="1069.5" y="231.49"/><rect fill="#F1F1F1" height="10" style="stroke:#181818;stroke-width:0.5;" width="15" x="1152.5" y="236.49"/><rect fill="#F1F1F1" height="2" style="stroke:#181818;stroke-width:0.5;" width="4" x="1150.5" y="238.49"/><rect fill="#F1F1F1" height="2" style="stroke:#181818;stroke-width:0.5;" width="4" x="1150.5" y="242.49"/><text fill="#000000" font-family="sans-serif" font-size="14" lengthAdjust="spacing" textLength="63" x="1084.5" y="265.0252">Frontend</text></g><!--entity API Gateway--><g id="elem_API Gateway"><rect fill="#F1F1F1" height="46.4883" rx="2.5" ry="2.5" style="stroke:#181818;stroke-width:0.5;" width="123" x="307.5" y="41"/><rect fill="#F1F1F1" height="10" style="stroke:#181818;stroke-width:0.5;" width="15" x="410.5" y="46"/><rect fill="#F1F1F1" height="2" style="stroke:#181818;stroke-width:0.5;" width="4" x="408.5" y="48"/><rect fill="#F1F1F1" height="2" style="stroke:#181818;stroke-width:0.5;" width="4" x="408.5" y="52"/><text fill="#000000" font-family="sans-serif" font-size="14" lengthAdjust="spacing" textLength="83" x="322.5" y="74.5352">API Gateway</text></g><!--entity Cart & Checkout Service--><g id="elem_Cart &amp; Checkout Service"><rect fill="#F1F1F1" height="46.4883" rx="2.5" ry="2.5" style="stroke:#181818;stroke-width:0.5;" width="204" x="374" y="231.49"/><rect fill="#F1F1F1" height="10" style="stroke:#181818;stroke-width:0.5;" width="15" x="558" y="236.49"/><rect fill="#F1F1F1" height="2" style="stroke:#181818;stroke-width:0.5;" width="4" x="556" y="238.49"/><rect fill="#F1F1F1" height="2" style="stroke:#181818;stroke-width:0.5;" width="4" x="556" y="242.49"/><text fill="#000000" font-family="sans-serif" font-size="14" lengthAdjust="spacing" textLength="164" x="389" y="265.0252">Cart &amp; Checkout Service</text></g><!--entity Order Service--><g id="elem_Order Service"><rect fill="#F1F1F1" height="46.4883" rx="2.5" ry="2.5" style="stroke:#181818;stroke-width:0.5;" width="132" x="22" y="231.49"/><rect fill="#F1F1F1" height="10" style="stroke:#181818;stroke-width:0.5;" width="15" x="134" y="236.49"/><rect fill="#F1F1F1" height="2" style="stroke:#181818;stroke-width:0.5;" width="4" x="132" y="238.49"/><rect fill="#F1F1F1" height="2" style="stroke:#181818;stroke-width:0.5;" width="4" x="132" y="242.49"/><text fill="#000000" font-family="sans-serif" font-size="14" lengthAdjust="spacing" textLength="92" x="37" y="265.0252">Order Service</text></g><!--entity Payment Service--><g id="elem_Payment Service"><rect fill="#F1F1F1" height="46.4883" rx="2.5" ry="2.5" style="stroke:#181818;stroke-width:0.5;" width="150" x="189" y="231.49"/><rect fill="#F1F1F1" height="10" style="stroke:#181818;stroke-width:0.5;" width="15" x="319" y="236.49"/><rect fill="#F1F1F1" height="2" style="stroke:#181818;stroke-width:0.5;" width="4" x="317" y="238.49"/><rect fill="#F1F1F1" height="2" style="stroke:#181818;stroke-width:0.5;" width="4" x="317" y="242.49"/><text fill="#000000" font-family="sans-serif" font-size="14" lengthAdjust="spacing" textLength="110" x="204" y="265.0252">Payment Service</text></g><!--entity Notification Service--><g id="elem_Notification Service"><rect fill="#F1F1F1" height="46.4883" rx="2.5" ry="2.5" style="stroke:#181818;stroke-width:0.5;" width="171" x="214.5" y="631.46"/><rect fill="#F1F1F1" height="10" style="stroke:#181818;stroke-width:0.5;" width="15" x="365.5" y="636.46"/><rect fill="#F1F1F1" height="2" style="stroke:#181818;stroke-width:0.5;" width="4" x="363.5" y="638.46"/><rect fill="#F1F1F1" height="2" style="stroke:#181818;stroke-width:0.5;" width="4" x="363.5" y="642.46"/><text fill="#000000" font-family="sans-serif" font-size="14" lengthAdjust="spacing" textLength="131" x="229.5" y="664.9952">Notification Service</text></g><!--entity Kafka--><g id="elem_Kafka"><rect fill="#F1F1F1" height="46.4883" rx="2.5" ry="2.5" style="stroke:#181818;stroke-width:0.5;" width="78" x="59" y="481.97"/><rect fill="#F1F1F1" height="10" style="stroke:#181818;stroke-width:0.5;" width="15" x="117" y="486.97"/><rect fill="#F1F1F1" height="2" style="stroke:#181818;stroke-width:0.5;" width="4" x="115" y="488.97"/><rect fill="#F1F1F1" height="2" style="stroke:#181818;stroke-width:0.5;" width="4" x="115" y="492.97"/><text fill="#000000" font-family="sans-serif" font-size="14" lengthAdjust="spacing" textLength="38" x="74" y="515.5052">Kafka</text></g><!--entity Orders--><g id="elem_Orders"><rect fill="#F1F1F1" height="46.4883" rx="2.5" ry="2.5" style="stroke:#181818;stroke-width:0.5;" width="87" x="171.5" y="481.97"/><rect fill="#F1F1F1" height="10" style="stroke:#181818;stroke-width:0.5;" width="15" x="238.5" y="486.97"/><rect fill="#F1F1F1" height="2" style="stroke:#181818;stroke-width:0.5;" width="4" x="236.5" y="488.97"/><rect fill="#F1F1F1" height="2" style="stroke:#181818;stroke-width:0.5;" width="4" x="236.5" y="492.97"/><text fill="#000000" font-family="sans-serif" font-size="14" lengthAdjust="spacing" textLength="47" x="186.5" y="515.5052">Orders</text></g><!--entity Payments--><g id="elem_Payments"><rect fill="#F1F1F1" height="46.4883" rx="2.5" ry="2.5" style="stroke:#181818;stroke-width:0.5;" width="105" x="293.5" y="481.97"/><rect fill="#F1F1F1" height="10" style="stroke:#181818;stroke-width:0.5;" width="15" x="378.5" y="486.97"/><rect fill="#F1F1F1" height="2" style="stroke:#181818;stroke-width:0.5;" width="4" x="376.5" y="488.97"/><rect fill="#F1F1F1" height="2" style="stroke:#181818;stroke-width:0.5;" width="4" x="376.5" y="492.97"/><text fill="#000000" font-family="sans-serif" font-size="14" lengthAdjust="spacing" textLength="65" x="308.5" y="515.5052">Payments</text></g><!--entity Payment Gateway--><g id="elem_Payment Gateway"><rect fill="#F1F1F1" height="46.4883" rx="2.5" ry="2.5" style="stroke:#181818;stroke-width:0.5;" width="159" x="633.5" y="481.97"/><rect fill="#F1F1F1" height="10" style="stroke:#181818;stroke-width:0.5;" width="15" x="772.5" y="486.97"/><rect fill="#F1F1F1" height="2" style="stroke:#181818;stroke-width:0.5;" width="4" x="770.5" y="488.97"/><rect fill="#F1F1F1" height="2" style="stroke:#181818;stroke-width:0.5;" width="4" x="770.5" y="492.97"/><text fill="#000000" font-family="sans-serif" font-size="14" lengthAdjust="spacing" textLength="119" x="648.5" y="515.5052">Payment Gateway</text></g><!--entity Secure Payment Form--><g id="elem_Secure Payment Form"><rect fill="#F1F1F1" height="46.4883" rx="2.5" ry="2.5" style="stroke:#181818;stroke-width:0.5;" width="188" x="827" y="481.97"/><rect fill="#F1F1F1" height="10" style="stroke:#181818;stroke-width:0.5;" width="15" x="995" y="486.97"/><rect fill="#F1F1F1" height="2" style="stroke:#181818;stroke-width:0.5;" width="4" x="993" y="488.97"/><rect fill="#F1F1F1" height="2" style="stroke:#181818;stroke-width:0.5;" width="4" x="993" y="492.97"/><text fill="#000000" font-family="sans-serif" font-size="14" lengthAdjust="spacing" textLength="148" x="842" y="515.5052">Secure Payment Form</text></g><!--entity Mixpanel--><g id="elem_Mixpanel"><rect fill="#F1F1F1" height="46.4883" rx="2.5" ry="2.5" style="stroke:#181818;stroke-width:0.5;" width="103" x="1239.5" y="481.97"/><rect fill="#F1F1F1" height="10" style="stroke:#181818;stroke-width:0.5;" width="15" x="1322.5" y="486.97"/><rect fill="#F1F1F1" height="2" style="stroke:#181818;stroke-width:0.5;" width="4" x="1320.5" y="488.97"/><rect fill="#F1F1F1" height="2" style="stroke:#181818;stroke-width:0.5;" width="4" x="1320.5" y="492.97"/><text fill="#000000" font-family="sans-serif" font-size="14" lengthAdjust="spacing" textLength="63" x="1254.5" y="515.5052">Mixpanel</text></g><!--entity Google Analytics--><g id="elem_Google Analytics"><rect fill="#F1F1F1" height="46.4883" rx="2.5" ry="2.5" style="stroke:#181818;stroke-width:0.5;" width="154" x="1050" y="481.97"/><rect fill="#F1F1F1" height="10" style="stroke:#181818;stroke-width:0.5;" width="15" x="1184" y="486.97"/><rect fill="#F1F1F1" height="2" style="stroke:#181818;stroke-width:0.5;" width="4" x="1182" y="488.97"/><rect fill="#F1F1F1" height="2" style="stroke:#181818;stroke-width:0.5;" width="4" x="1182" y="492.97"/><text fill="#000000" font-family="sans-serif" font-size="14" lengthAdjust="spacing" textLength="114" x="1065" y="515.5052">Google Analytics</text></g><!--link Frontend to API Gateway--><g id="link_Frontend_API Gateway"><path d="M1069.36,240.79 C935.15,207.15 581.61,118.5285 436.68,82.2085 " fill="none" id="Frontend-to-API Gateway" style="stroke:#181818;stroke-width:1.0;"/><polygon fill="#181818" points="430.86,80.75,438.6177,86.8178,435.71,81.9654,440.5624,79.0578,430.86,80.75" style="stroke:#181818;stroke-width:1.0;"/><text fill="#000000" font-family="sans-serif" font-size="13" lengthAdjust="spacing" textLength="113" x="813.36" y="131.0584">GET /cart/{userId}</text><text fill="#000000" font-family="sans-serif" font-size="13" lengthAdjust="spacing" textLength="108" x="819.86" y="146.3689">POST /checkout/</text><text fill="#000000" font-family="sans-serif" font-size="13" lengthAdjust="spacing" textLength="83" x="832.36" y="161.6795">POST /orders</text><text fill="#000000" font-family="sans-serif" font-size="13" lengthAdjust="spacing" textLength="97" x="823.36" y="176.99">POST /payment</text></g><!--link API Gateway to Cart & Checkout Service--><g id="link_API Gateway_Cart &amp; Checkout Service"><path d="M381.91,87.98 C402.53,124.3 439.709,189.7915 460.249,225.9915 " fill="none" id="API Gateway-to-Cart &amp; Checkout Service" style="stroke:#181818;stroke-width:1.0;"/><polygon fill="#181818" points="463.21,231.21,462.2475,221.4083,460.7425,226.8613,455.2895,225.3563,463.21,231.21" style="stroke:#181818;stroke-width:1.0;"/></g><!--link API Gateway to Order Service--><g id="link_API Gateway_Order Service"><path d="M307.21,87.75 C287.65,95.96 266.36,106.06 248,117.49 C194.1,151.02 143.8107,197.6855 114.4007,226.8455 " fill="none" id="API Gateway-to-Order Service" style="stroke:#181818;stroke-width:1.0;"/><polygon fill="#181818" points="110.14,231.07,119.3474,227.5737,113.6906,227.5496,113.7147,221.8928,110.14,231.07" style="stroke:#181818;stroke-width:1.0;"/><text fill="#000000" font-family="sans-serif" font-size="13" lengthAdjust="spacing" textLength="49" x="249" y="154.0584">Routing</text></g><!--link API Gateway to Payment Service--><g id="link_API Gateway_Payment Service"><path d="M356.33,87.98 C336.1,124.3 299.6293,189.7681 279.4693,225.9681 " fill="none" id="API Gateway-to-Payment Service" style="stroke:#181818;stroke-width:1.0;"/><polygon fill="#181818" points="276.55,231.21,284.4235,225.2933,278.9827,226.8417,277.4343,221.4009,276.55,231.21" style="stroke:#181818;stroke-width:1.0;"/></g><!--link Order Service to Kafka--><g id="link_Order Service_Kafka"><path d="M86.47,278.41 C85.88,288.13 85.29,299.6 85,309.97 C84.04,344.63 83.07,353.36 85,387.97 C86.82,420.62 90.6714,452.2361 93.8914,475.6161 " fill="none" id="Order Service-to-Kafka" style="stroke:#181818;stroke-width:1.0;"/><polygon fill="#181818" points="94.71,481.56,97.4447,472.0984,94.0278,476.6068,89.5195,473.1899,94.71,481.56" style="stroke:#181818;stroke-width:1.0;"/><text fill="#000000" font-family="sans-serif" font-size="13" lengthAdjust="spacing" textLength="50" x="100.5" y="323.5384">Publish:</text><text fill="#000000" font-family="sans-serif" font-size="13" lengthAdjust="spacing" textLength="83" x="86" y="338.8489">order.created</text><text fill="#000000" font-family="sans-serif" font-size="13" lengthAdjust="spacing" textLength="4" x="125.5" y="354.1595">&#160;</text><text fill="#000000" font-family="sans-serif" font-size="13" lengthAdjust="spacing" textLength="65" x="95" y="369.47">Subscribe:</text><text fill="#000000" font-family="sans-serif" font-size="13" lengthAdjust="spacing" textLength="54" x="100.5" y="384.7805">payment</text></g><!--link Payment Service to Kafka--><g id="link_Payment Service_Kafka"><path d="M239.56,278.3 C230.46,287.53 220.53,298.68 213,309.97 C191.92,341.58 205.83,362.1 178,387.97 C170.38,395.06 163.86,389.16 156,395.97 C129.41,419.01 114.9372,451.6313 106.6372,475.9613 " fill="none" id="Payment Service-to-Kafka" style="stroke:#181818;stroke-width:1.0;"/><polygon fill="#181818" points="104.7,481.64,111.3916,474.4135,106.3144,476.9078,103.8201,471.8305,104.7,481.64" style="stroke:#181818;stroke-width:1.0;"/><text fill="#000000" font-family="sans-serif" font-size="13" lengthAdjust="spacing" textLength="50" x="248" y="331.0384">Publish:</text><text fill="#000000" font-family="sans-serif" font-size="13" lengthAdjust="spacing" textLength="68" x="239" y="346.3489">order.paid,</text><text fill="#000000" font-family="sans-serif" font-size="13" lengthAdjust="spacing" textLength="118" x="214" y="361.6595">payment.refunded,</text><text fill="#000000" font-family="sans-serif" font-size="13" lengthAdjust="spacing" textLength="93" x="226.5" y="376.97">payment.failed</text></g><!--reverse link Kafka to Notification Service--><g id="link_Kafka_Notification Service"><path d="M116.5956,533.6022 C127.3256,548.4422 139.24,562.73 156,576.46 C183.21,598.76 217.85,617.58 246.33,631.06 " fill="none" id="Kafka-backto-Notification Service" style="stroke:#181818;stroke-width:1.0;"/><polygon fill="#181818" points="113.08,528.74,115.1119,538.377,116.0096,532.7918,121.5948,533.6895,113.08,528.74" style="stroke:#181818;stroke-width:1.0;"/><text fill="#000000" font-family="sans-serif" font-size="13" lengthAdjust="spacing" textLength="61" x="189.71" y="598.0284">Subscribe</text></g><!--link Notification Service to Frontend--><g id="link_Notification Service_Frontend"><path d="M385.62,653.98 C625.89,653.88 1293.26,647.17 1359,576.46 C1441,488.27 1404.68,384.4 1310,309.97 C1270.41,278.86 1219.6435,266.4113 1178.6835,260.7513 " fill="none" id="Notification Service-to-Frontend" style="stroke:#181818;stroke-width:1.0;"/><polygon fill="#181818" points="1172.74,259.93,1181.1078,265.1243,1177.6929,260.6144,1182.2028,257.1996,1172.74,259.93" style="stroke:#181818;stroke-width:1.0;"/><text fill="#000000" font-family="sans-serif" font-size="13" lengthAdjust="spacing" textLength="157" x="1405.51" y="510.2884">Notify users about result</text></g><!--link Order Service to Orders--><g id="link_Order Service_Orders"><path d="M139.71,278.23 C152.87,286.37 165.65,296.88 174,309.97 C192.8,339.44 177.26,353.68 184,387.97 C190.48,420.97 199.3484,452.6923 206.3184,475.9623 " fill="none" id="Order Service-to-Orders" style="stroke:#181818;stroke-width:1.0;"/><polygon fill="#181818" points="208.04,481.71,209.2894,471.9407,206.6053,476.9202,201.6258,474.2362,208.04,481.71" style="stroke:#181818;stroke-width:1.0;"/></g><!--link Payment Service to Payments--><g id="link_Payment Service_Payments"><path d="M310.38,278.21 C322.48,286.44 334.06,297 341,309.97 C370.77,365.59 360.9635,437.7324 352.8435,475.7424 " fill="none" id="Payment Service-to-Payments" style="stroke:#181818;stroke-width:1.0;"/><polygon fill="#181818" points="351.59,481.61,357.382,473.6443,352.6346,476.7203,349.5585,471.9729,351.59,481.61" style="stroke:#181818;stroke-width:1.0;"/></g><!--link Payment Service to Payment Gateway--><g id="link_Payment Service_Payment Gateway"><path d="M305.04,278.44 C390.55,325.76 581.6803,431.5448 666.9703,478.7448 " fill="none" id="Payment Service-to-Payment Gateway" style="stroke:#181818;stroke-width:1.0;"/><polygon fill="#181818" points="672.22,481.65,666.2822,473.7923,667.8452,479.229,662.4086,480.792,672.22,481.65" style="stroke:#181818;stroke-width:1.0;"/><text fill="#000000" font-family="sans-serif" font-size="13" lengthAdjust="spacing" textLength="120" x="502.96" y="354.0384">Redirect / Callback</text></g><!--link Frontend to Secure Payment Form--><g id="link_Frontend_Secure Payment Form"><path d="M1069.04,271.44 C1047.65,280.02 1023.97,292.54 1007,309.97 C958.39,359.93 936.0232,436.1523 926.9432,475.6823 " fill="none" id="Frontend-to-Secure Payment Form" style="stroke:#181818;stroke-width:1.0;"/><polygon fill="#181818" points="925.6,481.53,931.5133,473.6539,926.7193,476.6569,923.7163,471.863,925.6,481.53" style="stroke:#181818;stroke-width:1.0;"/><text fill="#000000" font-family="sans-serif" font-size="13" lengthAdjust="spacing" textLength="71" x="1020.5" y="346.5384">User enters</text><text fill="#000000" font-family="sans-serif" font-size="13" lengthAdjust="spacing" textLength="100" x="1008" y="361.8489">payment details</text></g><!--link Secure Payment Form to Payment Service--><g id="link_Secure Payment Form_Payment Service"><path d="M901.92,481.71 C881.1,458.16 845.93,421.16 810,395.97 C738.06,345.54 717.35,330.82 632,309.97 C572.61,295.47 416.31,316.82 357,301.97 C337.23,297.03 322.0571,290.3319 305.3871,281.1619 " fill="none" id="Secure Payment Form-to-Payment Service" style="stroke:#181818;stroke-width:1.0;"/><polygon fill="#181818" points="300.13,278.27,306.0877,286.1125,304.5109,280.6799,309.9436,279.1031,300.13,278.27" style="stroke:#181818;stroke-width:1.0;"/><text fill="#000000" font-family="sans-serif" font-size="13" lengthAdjust="spacing" textLength="102" x="798.58" y="346.5384">Submit payment</text><text fill="#000000" font-family="sans-serif" font-size="13" lengthAdjust="spacing" textLength="83" x="810.08" y="361.8489">data securely</text></g><!--link Frontend to Mixpanel--><g id="link_Frontend_Mixpanel"><path d="M1172.91,261.02 C1205.67,267.23 1246,280.71 1269,309.97 C1308.64,360.4 1302.6922,436.326 1296.3622,475.706 " fill="none" id="Frontend-to-Mixpanel" style="stroke:#181818;stroke-width:1.0;"/><polygon fill="#181818" points="1295.41,481.63,1300.7876,473.3789,1296.2035,476.6934,1292.889,472.1092,1295.41,481.63" style="stroke:#181818;stroke-width:1.0;"/></g><!--link Frontend to Google Analytics--><g id="link_Frontend_Google Analytics"><path d="M1119.47,278.41 C1118.88,288.13 1118.29,299.6 1118,309.97 C1117.04,344.63 1116.66,353.33 1118,387.97 C1119.26,420.54 1121.921,452.147 1124.151,475.557 " fill="none" id="Frontend-to-Google Analytics" style="stroke:#181818;stroke-width:1.0;"/><polygon fill="#181818" points="1124.72,481.53,1127.8485,472.1912,1124.2459,476.5525,1119.8846,472.9499,1124.72,481.53" style="stroke:#181818;stroke-width:1.0;"/><text fill="#000000" font-family="sans-serif" font-size="13" lengthAdjust="spacing" textLength="145" x="1119" y="354.0384">Track user interactions</text></g><!--SRC=[VLJ1Rjim3BtxAuWSTcgQUp0CoB8sA8QjGTsXXza7MM9I8OfaI79ReyY_bx8S9sxitYpgyV7naNB9-8vj4IPFMC2YB9Nap4kZ9_2U0Fo_jKPxr29F3abI7h4_wOE2aA9zaHnT2rwixs35FBwoEW_d9RCUli7o6VdELFu8R-xkhK3RYwnPlKVTH_qrNcvQHRsBtsopOtdIamZJwO- -29Z3wkOHPfo4pDuhX_PE723JiBvFGxWLDkiY9gXocOwdCYhwt5giyrLpb-X-kwJhWNAatWwZ1wouz2n2en54kAuA9TtpdDfhkhZc5ebKP3hJQLKuRcM1yqoVDVMvp0WZkHCPIoR55NGKrnOtbHOehawX3PCAnMb2y7qw7HaZLUXqZSuwIZgDU0uDh8OmJ0Ui2DPRT9NoqIJ1F2kOeoNzHL-GUcDfPUE2TdVHIPVtOgqRBX-p-fGqujmvmo4y6AvC9M1oy-RHQgOWhPt7_V6vV4boliCFAAH5xc46IwPKGQylvAV8AujmJBWrTfyFF8WX697-8mE10i76RduWqDC4tHZzy7h6IUwbXvQ6DYRu2gwXK3NHTV-E1HaXlUGEtBaRLF2FV2kPHfN7uygOhK88-3hWewkN_NLfC71vGK9Q7orfQHO8PEYVyR1oZWRs0G00]--></g></svg>