<?xml version="1.0" encoding="us-ascii" standalone="no"?><svg xmlns="http://www.w3.org/2000/svg" xmlns:xlink="http://www.w3.org/1999/xlink" contentStyleType="text/css" height="221px" preserveAspectRatio="none" style="width:2128px;height:221px;background:#FFFFFF;" version="1.1" viewBox="0 0 2128 221" width="2128px" zoomAndPan="magnify"><defs/><g><!--cluster Shopping--><g id="cluster_Shopping"><rect fill="none" height="84.97" rx="2.5" ry="2.5" style="stroke:#181818;stroke-width:1.0;" width="508" x="7" y="118.76"/><text fill="#000000" font-family="sans-serif" font-size="14" font-weight="bold" lengthAdjust="spacing" textLength="67" x="227.5" y="134.2952">Shopping</text></g><!--cluster Payment Management--><g id="cluster_Payment Management"><rect fill="none" height="91.59" rx="2.5" ry="2.5" style="stroke:#181818;stroke-width:1.0;" width="852" x="539" y="115.45"/><text fill="#000000" font-family="sans-serif" font-size="14" font-weight="bold" lengthAdjust="spacing" textLength="159" x="885.5" y="130.9852">Payment Management</text></g><!--cluster Order & Notification Management--><g id="cluster_Order &amp; Notification Management"><rect fill="none" height="108.51" rx="2.5" ry="2.5" style="stroke:#181818;stroke-width:1.0;" width="707" x="1415" y="106.99"/><text fill="#000000" font-family="sans-serif" font-size="14" font-weight="bold" lengthAdjust="spacing" textLength="244" x="1646.5" y="122.5252">Order &amp; Notification Management</text></g><g id="elem_VC"><ellipse cx="441.0015" cy="170.7384" fill="#F1F1F1" rx="57.9115" ry="14.7584" style="stroke:#181818;stroke-width:0.5;"/><text fill="#000000" font-family="sans-serif" font-size="14" lengthAdjust="spacing" textLength="65" x="405.5015" y="174.756">View Cart</text></g><g id="elem_VCH"><ellipse cx="96.0004" cy="170.7381" fill="#F1F1F1" rx="72.9404" ry="16.9881" style="stroke:#181818;stroke-width:0.5;"/><text fill="#000000" font-family="sans-serif" font-size="14" lengthAdjust="spacing" textLength="101" x="45.1941" y="174.1131">View Checkout</text></g><g id="elem_CO"><ellipse cx="276.0003" cy="170.7381" fill="#F1F1F1" rx="72.5403" ry="16.9081" style="stroke:#181818;stroke-width:0.5;"/><text fill="#000000" font-family="sans-serif" font-size="14" lengthAdjust="spacing" textLength="100" x="225.5032" y="174.1641">Confirm Order</text></g><g id="elem_Pay"><ellipse cx="582.9987" cy="170.739" fill="#F1F1F1" rx="27.7487" ry="14.659" style="stroke:#181818;stroke-width:0.5;"/><text fill="#000000" font-family="sans-serif" font-size="14" lengthAdjust="spacing" textLength="23" x="571.4987" y="174.03">Pay</text></g><g id="elem_RP"><ellipse cx="716.9965" cy="170.7413" fill="#F1F1F1" rx="71.3565" ry="16.6713" style="stroke:#181818;stroke-width:0.5;"/><text fill="#000000" font-family="sans-serif" font-size="14" lengthAdjust="spacing" textLength="97" x="667.4143" y="174.3185">Retry Payment</text></g><g id="elem_CP"><ellipse cx="898.9952" cy="170.739" fill="#F1F1F1" rx="75.7952" ry="17.559" style="stroke:#181818;stroke-width:0.5;"/><text fill="#000000" font-family="sans-serif" font-size="14" lengthAdjust="spacing" textLength="108" x="844.9952" y="174.0301">Cancel Payment</text></g><g id="elem_RR"><ellipse cx="1085.9952" cy="170.739" fill="#F1F1F1" rx="75.7952" ry="17.559" style="stroke:#181818;stroke-width:0.5;"/><text fill="#000000" font-family="sans-serif" font-size="14" lengthAdjust="spacing" textLength="108" x="1031.9952" y="174.0301">Request Refund</text></g><g id="elem_VPS"><ellipse cx="1285.9989" cy="170.7418" fill="#F1F1F1" rx="89.4589" ry="20.2918" style="stroke:#181818;stroke-width:0.5;"/><text fill="#000000" font-family="sans-serif" font-size="14" lengthAdjust="spacing" textLength="140" x="1215.9989" y="174.0328">View Payment Status</text></g><g id="elem_UOS"><ellipse cx="2016.9997" cy="170.7439" fill="#F1F1F1" rx="89.0197" ry="20.2039" style="stroke:#181818;stroke-width:0.5;"/><text fill="#000000" font-family="sans-serif" font-size="14" lengthAdjust="spacing" textLength="139" x="1947.4997" y="174.035">Update Order Status</text></g><g id="elem_VOS"><ellipse cx="1811.0048" cy="170.743" fill="#F1F1F1" rx="81.6648" ry="18.733" style="stroke:#181818;stroke-width:0.5;"/><text fill="#000000" font-family="sans-serif" font-size="14" lengthAdjust="spacing" textLength="122" x="1750.0048" y="174.034">View Order Status</text></g><g id="elem_RNC"><ellipse cx="1562.9956" cy="170.7351" fill="#F1F1F1" rx="131.7756" ry="28.7551" style="stroke:#181818;stroke-width:0.5;"/><text fill="#000000" font-family="sans-serif" font-size="14" lengthAdjust="spacing" textLength="232" x="1446.9956" y="174.0261">Receive Notification/Confirmation</text></g><!--entity User--><g id="elem_User"><ellipse cx="808" cy="14" fill="#F1F1F1" rx="8" ry="8" style="stroke:#181818;stroke-width:0.5;"/><path d="M808,22 L808,49 M795,30 L821,30 M808,49 L795,64 M808,49 L821,64 " fill="none" style="stroke:#181818;stroke-width:0.5;"/><text fill="#000000" font-family="sans-serif" font-size="14" lengthAdjust="spacing" textLength="31" x="792.5" y="79.0352">User</text></g><!--entity CS--><g id="elem_CS"><ellipse cx="1811" cy="14" fill="#F1F1F1" rx="8" ry="8" style="stroke:#181818;stroke-width:0.5;"/><path d="M1811,22 L1811,49 M1798,30 L1824,30 M1811,49 L1798,64 M1811,49 L1824,64 " fill="none" style="stroke:#181818;stroke-width:0.5;"/><text fill="#000000" font-family="sans-serif" font-size="14" lengthAdjust="spacing" textLength="126" x="1748" y="79.0352">Customer Support</text></g><!--link User to VC--><g id="link_User_VC"><path d="M792.14,45.6 C749.47,48.4 629.36,59.48 539,98.99 C506.31,113.28 478.2952,135.7934 460.1552,151.9934 " fill="none" id="User-to-VC" style="stroke:#181818;stroke-width:1.0;"/><polygon fill="#181818" points="455.68,155.99,465.0572,152.9786,459.4093,152.6595,459.7284,147.0117,455.68,155.99" style="stroke:#181818;stroke-width:1.0;"/></g><!--link User to VCH--><g id="link_User_VCH"><path d="M792.28,44.91 C707.17,45.97 301.29,53.39 186,98.99 C155.5,111.05 131.1176,132.663 114.6576,149.553 " fill="none" id="User-to-VCH" style="stroke:#181818;stroke-width:1.0;"/><polygon fill="#181818" points="110.47,153.85,119.616,150.1962,113.9597,150.2692,113.8867,144.6128,110.47,153.85" style="stroke:#181818;stroke-width:1.0;"/></g><!--link User to CO--><g id="link_User_CO"><path d="M792.29,45.54 C723.15,49.22 445.77,65.81 366,98.99 C335.9,111.51 311.6535,132.7683 295.0835,149.4883 " fill="none" id="User-to-CO" style="stroke:#181818;stroke-width:1.0;"/><polygon fill="#181818" points="290.86,153.75,300.0364,150.1731,294.3796,150.1986,294.3541,144.5418,290.86,153.75" style="stroke:#181818;stroke-width:1.0;"/></g><!--link User to Pay--><g id="link_User_Pay"><path d="M792.15,45.85 C758.61,48.91 679.37,60.06 628,98.99 C608.39,113.85 597.4039,134.4068 590.6139,150.4068 " fill="none" id="User-to-Pay" style="stroke:#181818;stroke-width:1.0;"/><polygon fill="#181818" points="588.27,155.93,595.468,149.2078,590.2233,151.3273,588.1037,146.0825,588.27,155.93" style="stroke:#181818;stroke-width:1.0;"/></g><!--link User to RP--><g id="link_User_RP"><path d="M792.15,66.52 C773.92,91.56 747.9711,127.1991 731.8911,149.2891 " fill="none" id="User-to-RP" style="stroke:#181818;stroke-width:1.0;"/><polygon fill="#181818" points="728.36,154.14,736.8906,149.2177,731.3026,150.0976,730.4227,144.5096,728.36,154.14" style="stroke:#181818;stroke-width:1.0;"/></g><!--link User to CP--><g id="link_User_CP"><path d="M823.85,66.52 C841.78,91.14 867.0385,125.8494 883.2885,148.1694 " fill="none" id="User-to-CP" style="stroke:#181818;stroke-width:1.0;"/><polygon fill="#181818" points="886.82,153.02,884.7565,143.3897,883.8771,148.9778,878.289,148.0984,886.82,153.02" style="stroke:#181818;stroke-width:1.0;"/></g><!--link User to RR--><g id="link_User_RR"><path d="M823.97,47.46 C856.81,53.45 933.68,69.66 992,98.99 C1021.01,113.58 1045.7555,133.3651 1063.7455,149.2751 " fill="none" id="User-to-RR" style="stroke:#181818;stroke-width:1.0;"/><polygon fill="#181818" points="1068.24,153.25,1064.1481,144.2914,1064.4946,149.9376,1058.8483,150.2841,1068.24,153.25" style="stroke:#181818;stroke-width:1.0;"/></g><!--link User to VPS--><g id="link_User_VPS"><path d="M823.8,44.63 C876.24,44.76 1048.56,49.19 1179,98.99 C1211.04,111.22 1238.5657,130.5907 1259.1557,147.0707 " fill="none" id="User-to-VPS" style="stroke:#181818;stroke-width:1.0;"/><polygon fill="#181818" points="1263.84,150.82,1259.313,142.0732,1259.9364,147.6956,1254.314,148.319,1263.84,150.82" style="stroke:#181818;stroke-width:1.0;"/></g><!--link CS to VPS--><g id="link_CS_VPS"><path d="M1747.68,46.35 C1668.14,49.95 1528.34,61.57 1415,98.99 C1377.4,111.4 1343.0624,131.4375 1317.8624,147.9075 " fill="none" id="CS-to-VPS" style="stroke:#181818;stroke-width:1.0;"/><polygon fill="#181818" points="1312.84,151.19,1322.562,149.6145,1317.0254,148.4546,1318.1853,142.9179,1312.84,151.19" style="stroke:#181818;stroke-width:1.0;"/></g><!--link User to VOS--><g id="link_User_VOS"><path d="M823.71,44.51 C929.51,43.09 1538.96,37.73 1712,98.99 C1743.86,110.27 1770.1501,131.0323 1788.7001,148.0623 " fill="none" id="User-to-VOS" style="stroke:#181818;stroke-width:1.0;"/><polygon fill="#181818" points="1793.12,152.12,1789.1953,143.0869,1789.4368,148.7386,1783.7851,148.98,1793.12,152.12" style="stroke:#181818;stroke-width:1.0;"/></g><!--link User to RNC--><g id="link_User_RNC"><path d="M823.59,44.51 C891.87,43.85 1170.89,44.77 1391,98.99 C1433.01,109.34 1472.7346,125.6991 1506.2346,141.3591 " fill="none" id="User-to-RNC" style="stroke:#181818;stroke-width:1.0;"/><polygon fill="#181818" points="1511.67,143.9,1505.2108,136.4651,1507.1405,141.7826,1501.8229,143.7123,1511.67,143.9" style="stroke:#181818;stroke-width:1.0;"/></g><!--link CS to VOS--><g id="link_CS_VOS"><path d="M1811,82.25 C1811,105.26 1811,127.69 1811,145.77 " fill="none" id="CS-to-VOS" style="stroke:#181818;stroke-width:1.0;"/><polygon fill="#181818" points="1811,151.77,1815,142.77,1811,146.77,1807,142.77,1811,151.77" style="stroke:#181818;stroke-width:1.0;"/></g><!--link CS to UOS--><g id="link_CS_UOS"><path d="M1874.29,78.4 C1886.25,85.05 1898.59,92.11 1910,98.99 C1937.84,115.78 1963.7779,133.0522 1985.1779,147.6922 " fill="none" id="CS-to-UOS" style="stroke:#181818;stroke-width:1.0;"/><polygon fill="#181818" points="1990.13,151.08,1984.9604,142.697,1986.0033,148.2569,1980.4434,149.2997,1990.13,151.08" style="stroke:#181818;stroke-width:1.0;"/></g><!--SRC=[PL6xRiCm3Dpz5OI7eXs2_a4NBLaQ6nRiNP1fHsWikJBL8YZoxxKaluHCul7ukAE496EXdj1c8eGvSnEP0IrmDux6KWvY0iQppA8aeViRGiwlPXoLxdFuom1U6uM_m8IbDr_Ri3rtHVbbt9e_Uu8PtIaxG65Rj85WnPpt4k1q-eZj1tG-mhdqaIWfnNr0JV0fjEZHXukccGZ3vzV32idUOQaEH5K6DK9Bl2K4AsF3jyE9eCBEwJPsL9knTIqdGMwAzaf-L1htRZ1issqaACpT7OSvZ6yWDHpE1YzmCQGw9GKfev_TrsCh2EEDZoBhWcyUdiWcaXLAL3-OR7XVVYs0U8nB-az5uZwogudYuCWhU6J_]--></g></svg>