<?xml version="1.0" encoding="us-ascii" standalone="no"?><svg xmlns="http://www.w3.org/2000/svg" xmlns:xlink="http://www.w3.org/1999/xlink" contentStyleType="text/css" height="397px" preserveAspectRatio="none" style="width:621px;height:397px;background:#FFFFFF;" version="1.1" viewBox="0 0 621 397" width="621px" zoomAndPan="magnify"><defs/><g><ellipse cx="253.5" cy="16" fill="#222222" rx="10" ry="10" style="stroke:#222222;stroke-width:1.0;"/><g id="created"><rect fill="#F1F1F1" height="50" rx="12.5" ry="12.5" style="stroke:#181818;stroke-width:0.5;" width="71" x="218" y="87"/><line style="stroke:#181818;stroke-width:0.5;" x1="218" x2="289" y1="113.4883" y2="113.4883"/><text fill="#000000" font-family="sans-serif" font-size="14" lengthAdjust="spacing" textLength="51" x="228" y="105.5352">created</text></g><g id="paid"><rect fill="#F1F1F1" height="50" rx="12.5" ry="12.5" style="stroke:#181818;stroke-width:0.5;" width="50" x="23.5" y="214"/><line style="stroke:#181818;stroke-width:0.5;" x1="23.5" x2="73.5" y1="240.4883" y2="240.4883"/><text fill="#000000" font-family="sans-serif" font-size="14" lengthAdjust="spacing" textLength="30" x="33.5" y="232.5352">paid</text></g><g id="paymentFailed"><rect fill="#F1F1F1" height="50" rx="12.5" ry="12.5" style="stroke:#181818;stroke-width:0.5;" width="120" x="193.5" y="214"/><line style="stroke:#181818;stroke-width:0.5;" x1="193.5" x2="313.5" y1="240.4883" y2="240.4883"/><text fill="#000000" font-family="sans-serif" font-size="14" lengthAdjust="spacing" textLength="100" x="203.5" y="232.5352">paymentFailed</text></g><g id="refunded"><rect fill="#F1F1F1" height="50" rx="12.5" ry="12.5" style="stroke:#181818;stroke-width:0.5;" width="83" x="7" y="341"/><line style="stroke:#181818;stroke-width:0.5;" x1="7" x2="90" y1="367.4883" y2="367.4883"/><text fill="#000000" font-family="sans-serif" font-size="14" lengthAdjust="spacing" textLength="63" x="17" y="359.5352">refunded</text></g><g id="cancelled"><rect fill="#F1F1F1" height="50" rx="12.5" ry="12.5" style="stroke:#181818;stroke-width:0.5;" width="84" x="384.5" y="214"/><line style="stroke:#181818;stroke-width:0.5;" x1="384.5" x2="468.5" y1="240.4883" y2="240.4883"/><text fill="#000000" font-family="sans-serif" font-size="14" lengthAdjust="spacing" textLength="64" x="394.5" y="232.5352">cancelled</text></g><!--link *start* to created--><g id="link_*start*_created"><path d="M253.5,26.36 C253.5,40.29 253.5,60.95 253.5,80.65 " fill="none" id="*start*-to-created" style="stroke:#181818;stroke-width:1.0;"/><polygon fill="#181818" points="253.5,86.65,257.5,77.65,253.5,81.65,249.5,77.65,253.5,86.65" style="stroke:#181818;stroke-width:1.0;"/></g><!--link created to paid--><g id="link_created_paid"><path d="M217.71,115.1 C178.67,119.2 116.55,131.32 77.5,167 C64.23,179.13 58.3942,192.4016 54.4242,207.7316 " fill="none" id="created-to-paid" style="stroke:#181818;stroke-width:1.0;"/><polygon fill="#181818" points="52.92,213.54,59.0486,205.8302,54.1735,208.6997,51.304,203.8246,52.92,213.54" style="stroke:#181818;stroke-width:1.0;"/><text fill="#000000" font-family="sans-serif" font-size="13" lengthAdjust="spacing" textLength="163" x="78.5" y="180.5684">When payment successful</text></g><!--link created to paymentFailed--><g id="link_created_paymentFailed"><path d="M251.85,137.45 C251.31,146.7 250.77,157.33 250.5,167 C250.07,182.54 250.4231,193.9912 251.2631,207.7012 " fill="none" id="created-to-paymentFailed" style="stroke:#181818;stroke-width:1.0;"/><polygon fill="#181818" points="251.63,213.69,255.0721,204.4622,251.3242,208.6994,247.0871,204.9515,251.63,213.69" style="stroke:#181818;stroke-width:1.0;"/><text fill="#000000" font-family="sans-serif" font-size="13" lengthAdjust="spacing" textLength="131" x="251.5" y="180.5684">When payment failed</text></g><!--link paid to refunded--><g id="link_paid_refunded"><path d="M48.5,264.4 C48.5,286.42 48.5,312.66 48.5,334.66 " fill="none" id="paid-to-refunded" style="stroke:#181818;stroke-width:1.0;"/><polygon fill="#181818" points="48.5,340.66,52.5,331.66,48.5,335.66,44.5,331.66,48.5,340.66" style="stroke:#181818;stroke-width:1.0;"/><text fill="#000000" font-family="sans-serif" font-size="13" lengthAdjust="spacing" textLength="116" x="49.5" y="307.5684">On refund process</text></g><!--link created to cancelled--><g id="link_created_cancelled"><path d="M289.22,120.34 C318.46,127.88 359.45,142.11 387.5,167 C401.6,179.51 409.3006,192.8364 415.6506,207.9864 " fill="none" id="created-to-cancelled" style="stroke:#181818;stroke-width:1.0;"/><polygon fill="#181818" points="417.97,213.52,418.18,203.6734,416.0372,208.9087,410.8019,206.7659,417.97,213.52" style="stroke:#181818;stroke-width:1.0;"/><text fill="#000000" font-family="sans-serif" font-size="13" lengthAdjust="spacing" textLength="211" x="402.9" y="180.5684">If order cancelled before payment</text></g><!--SRC=[NOqn3i8m34Ntdi8pKY_0m8Z4nCY068BzBIe5ftAQWTj3h2919zlFty_NtOt6yK3iI0jaM6kmEKr2UxeyO9_-zOGjL1ipQjMMDz5O7zEK8PiJ3JY4hMSTsapGrMTR9vgzTE-Vb9CnSexaIQcum7_W7LeStpTl]--></g></svg>