<?xml version="1.0" encoding="us-ascii" standalone="no"?><svg xmlns="http://www.w3.org/2000/svg" xmlns:xlink="http://www.w3.org/1999/xlink" contentStyleType="text/css" height="397px" preserveAspectRatio="none" style="width:588px;height:397px;background:#FFFFFF;" version="1.1" viewBox="0 0 588 397" width="588px" zoomAndPan="magnify"><defs/><g><ellipse cx="315.5" cy="16" fill="#222222" rx="10" ry="10" style="stroke:#222222;stroke-width:1.0;"/><g id="pending"><rect fill="#F1F1F1" height="50" rx="12.5" ry="12.5" style="stroke:#181818;stroke-width:0.5;" width="77" x="277" y="87"/><line style="stroke:#181818;stroke-width:0.5;" x1="277" x2="354" y1="113.4883" y2="113.4883"/><text fill="#000000" font-family="sans-serif" font-size="14" lengthAdjust="spacing" textLength="57" x="287" y="105.5352">pending</text></g><g id="success"><rect fill="#F1F1F1" height="50" rx="12.5" ry="12.5" style="stroke:#181818;stroke-width:0.5;" width="72" x="12.5" y="214"/><line style="stroke:#181818;stroke-width:0.5;" x1="12.5" x2="84.5" y1="240.4883" y2="240.4883"/><text fill="#000000" font-family="sans-serif" font-size="14" lengthAdjust="spacing" textLength="52" x="22.5" y="232.5352">success</text></g><g id="failed"><rect fill="#F1F1F1" height="50" rx="12.5" ry="12.5" style="stroke:#181818;stroke-width:0.5;" width="58" x="206.5" y="214"/><line style="stroke:#181818;stroke-width:0.5;" x1="206.5" x2="264.5" y1="240.4883" y2="240.4883"/><text fill="#000000" font-family="sans-serif" font-size="14" lengthAdjust="spacing" textLength="38" x="216.5" y="232.5352">failed</text></g><g id="cancelled"><rect fill="#F1F1F1" height="50" rx="12.5" ry="12.5" style="stroke:#181818;stroke-width:0.5;" width="84" x="353.5" y="214"/><line style="stroke:#181818;stroke-width:0.5;" x1="353.5" x2="437.5" y1="240.4883" y2="240.4883"/><text fill="#000000" font-family="sans-serif" font-size="14" lengthAdjust="spacing" textLength="64" x="363.5" y="232.5352">cancelled</text></g><g id="timeout"><rect fill="#F1F1F1" height="50" rx="12.5" ry="12.5" style="stroke:#181818;stroke-width:0.5;" width="73" x="492" y="214"/><line style="stroke:#181818;stroke-width:0.5;" x1="492" x2="565" y1="240.4883" y2="240.4883"/><text fill="#000000" font-family="sans-serif" font-size="14" lengthAdjust="spacing" textLength="53" x="502" y="232.5352">timeout</text></g><g id="refunded"><rect fill="#F1F1F1" height="50" rx="12.5" ry="12.5" style="stroke:#181818;stroke-width:0.5;" width="83" x="7" y="341"/><line style="stroke:#181818;stroke-width:0.5;" x1="7" x2="90" y1="367.4883" y2="367.4883"/><text fill="#000000" font-family="sans-serif" font-size="14" lengthAdjust="spacing" textLength="63" x="17" y="359.5352">refunded</text></g><!--link *start* to pending--><g id="link_*start*_pending"><path d="M315.5,26.36 C315.5,40.29 315.5,60.95 315.5,80.65 " fill="none" id="*start*-to-pending" style="stroke:#181818;stroke-width:1.0;"/><polygon fill="#181818" points="315.5,86.65,319.5,77.65,315.5,81.65,311.5,77.65,315.5,86.65" style="stroke:#181818;stroke-width:1.0;"/></g><!--link pending to success--><g id="link_pending_success"><path d="M276.66,116.99 C215.9,123.98 102.24,140.29 72.5,167 C59.33,178.82 54.4023,192.2077 51.7223,207.7077 " fill="none" id="pending-to-success" style="stroke:#181818;stroke-width:1.0;"/><polygon fill="#181818" points="50.7,213.62,56.1749,205.4331,51.5519,208.6931,48.2919,204.0701,50.7,213.62" style="stroke:#181818;stroke-width:1.0;"/><text fill="#000000" font-family="sans-serif" font-size="13" lengthAdjust="spacing" textLength="145" x="73.5" y="180.5684">On successful callback</text></g><!--link pending to failed--><g id="link_pending_failed"><path d="M276.71,128.06 C259.94,136.74 242.01,149.47 232.5,167 C224.85,181.1 224.6317,193.2951 227.3617,207.6851 " fill="none" id="pending-to-failed" style="stroke:#181818;stroke-width:1.0;"/><polygon fill="#181818" points="228.48,213.58,230.7324,203.9922,227.548,208.6676,222.8726,205.4833,228.48,213.58" style="stroke:#181818;stroke-width:1.0;"/><text fill="#000000" font-family="sans-serif" font-size="13" lengthAdjust="spacing" textLength="118" x="233.5" y="180.5684">On failure callback</text></g><!--link pending to cancelled--><g id="link_pending_cancelled"><path d="M335.27,137.45 C342.28,146.52 350.03,157.03 356.5,167 C366.3,182.1 373.2712,194.5323 380.5712,208.5023 " fill="none" id="pending-to-cancelled" style="stroke:#181818;stroke-width:1.0;"/><polygon fill="#181818" points="383.35,213.82,382.727,203.9909,381.0344,209.3885,375.6367,207.6959,383.35,213.82" style="stroke:#181818;stroke-width:1.0;"/><text fill="#000000" font-family="sans-serif" font-size="13" lengthAdjust="spacing" textLength="91" x="366.82" y="180.5684">If user cancels</text></g><!--link pending to timeout--><g id="link_pending_timeout"><path d="M354.3,121.09 C386.39,129.08 432.11,143.56 466.5,167 C484.76,179.44 497.4305,193.6873 508.7105,208.9273 " fill="none" id="pending-to-timeout" style="stroke:#181818;stroke-width:1.0;"/><polygon fill="#181818" points="512.28,213.75,510.1408,204.1363,509.3054,209.7311,503.7106,208.8957,512.28,213.75" style="stroke:#181818;stroke-width:1.0;"/><text fill="#000000" font-family="sans-serif" font-size="13" lengthAdjust="spacing" textLength="93" x="487.24" y="180.5684">After inactivity</text></g><!--link success to refunded--><g id="link_success_refunded"><path d="M48.5,264.4 C48.5,286.42 48.5,312.66 48.5,334.66 " fill="none" id="success-to-refunded" style="stroke:#181818;stroke-width:1.0;"/><polygon fill="#181818" points="48.5,340.66,52.5,331.66,48.5,335.66,44.5,331.66,48.5,340.66" style="stroke:#181818;stroke-width:1.0;"/><text fill="#000000" font-family="sans-serif" font-size="13" lengthAdjust="spacing" textLength="109" x="49.5" y="307.5684">On refund trigger</text></g><!--SRC=[RSun3i8m30NGlQVmZDGBC20nCd60Yi4uJcGr69JOIDoUbZH39IRxVpt9dWut6CSJl5Y3Q1gs-Ukg4t6jS8IhzX0z0s7ETwHvXoDAvj3ikdlX_v1GYNEpbmXUkMnTtJcJ1p_T5dMEjXXH99Ets6VeZwsiS7GD_N9BO4LIul85]--></g></svg>