<?xml version="1.0" encoding="us-ascii" standalone="no"?><svg xmlns="http://www.w3.org/2000/svg" xmlns:xlink="http://www.w3.org/1999/xlink" contentStyleType="text/css" height="524px" preserveAspectRatio="none" style="width:314px;height:524px;background:#FFFFFF;" version="1.1" viewBox="0 0 314 524" width="314px" zoomAndPan="magnify"><defs/><g><ellipse cx="60.5" cy="16" fill="#222222" rx="10" ry="10" style="stroke:#222222;stroke-width:1.0;"/><g id="available"><rect fill="#F1F1F1" height="50" rx="12.5" ry="12.5" style="stroke:#181818;stroke-width:0.5;" width="80" x="20.5" y="87"/><line style="stroke:#181818;stroke-width:0.5;" x1="20.5" x2="100.5" y1="113.4883" y2="113.4883"/><text fill="#000000" font-family="sans-serif" font-size="14" lengthAdjust="spacing" textLength="60" x="30.5" y="105.5352">available</text></g><g id="reserved"><rect fill="#F1F1F1" height="50" rx="12.5" ry="12.5" style="stroke:#181818;stroke-width:0.5;" width="79" x="21" y="214"/><line style="stroke:#181818;stroke-width:0.5;" x1="21" x2="100" y1="240.4883" y2="240.4883"/><text fill="#000000" font-family="sans-serif" font-size="14" lengthAdjust="spacing" textLength="59" x="31" y="232.5352">reserved</text></g><g id="out_of_stock"><rect fill="#F1F1F1" height="50" rx="12.5" ry="12.5" style="stroke:#181818;stroke-width:0.5;" width="107" x="7" y="341"/><line style="stroke:#181818;stroke-width:0.5;" x1="7" x2="114" y1="367.4883" y2="367.4883"/><text fill="#000000" font-family="sans-serif" font-size="14" lengthAdjust="spacing" textLength="87" x="17" y="359.5352">out_of_stock</text></g><g id="archived"><rect fill="#F1F1F1" height="50" rx="12.5" ry="12.5" style="stroke:#181818;stroke-width:0.5;" width="78" x="21.5" y="468"/><line style="stroke:#181818;stroke-width:0.5;" x1="21.5" x2="99.5" y1="494.4883" y2="494.4883"/><text fill="#000000" font-family="sans-serif" font-size="14" lengthAdjust="spacing" textLength="58" x="31.5" y="486.5352">archived</text></g><!--link *start* to available--><g id="link_*start*_available"><path d="M60.5,26.36 C60.5,40.29 60.5,60.95 60.5,80.65 " fill="none" id="*start*-to-available" style="stroke:#181818;stroke-width:1.0;"/><polygon fill="#181818" points="60.5,86.65,64.5,77.65,60.5,81.65,56.5,77.65,60.5,86.65" style="stroke:#181818;stroke-width:1.0;"/></g><!--link available to reserved--><g id="link_available_reserved"><path d="M60.5,137.4 C60.5,159.42 60.5,185.66 60.5,207.66 " fill="none" id="available-to-reserved" style="stroke:#181818;stroke-width:1.0;"/><polygon fill="#181818" points="60.5,213.66,64.5,204.66,60.5,208.66,56.5,204.66,60.5,213.66" style="stroke:#181818;stroke-width:1.0;"/><text fill="#000000" font-family="sans-serif" font-size="13" lengthAdjust="spacing" textLength="229" x="61.5" y="180.5684">When checkout openned (optionally)</text></g><!--link reserved to out_of_stock--><g id="link_reserved_out_of_stock"><path d="M60.5,264.4 C60.5,286.42 60.5,312.66 60.5,334.66 " fill="none" id="reserved-to-out_of_stock" style="stroke:#181818;stroke-width:1.0;"/><polygon fill="#181818" points="60.5,340.66,64.5,331.66,60.5,335.66,56.5,331.66,60.5,340.66" style="stroke:#181818;stroke-width:1.0;"/><text fill="#000000" font-family="sans-serif" font-size="13" lengthAdjust="spacing" textLength="245" x="61.5" y="307.5684">When stock exhausted or after timeout</text></g><!--link out_of_stock to archived--><g id="link_out_of_stock_archived"><path d="M60.5,391.4 C60.5,413.42 60.5,439.66 60.5,461.66 " fill="none" id="out_of_stock-to-archived" style="stroke:#181818;stroke-width:1.0;"/><polygon fill="#181818" points="60.5,467.66,64.5,458.66,60.5,462.66,56.5,458.66,60.5,467.66" style="stroke:#181818;stroke-width:1.0;"/><text fill="#000000" font-family="sans-serif" font-size="13" lengthAdjust="spacing" textLength="187" x="61.5" y="434.5684">After prolonged unavailability</text></g><!--SRC=[LOv12i8m44NtESKiLUW5N0YUmeL86UFKXCPCc4nAUtjZgWLtCv_tu5qFD-Yw4-24Fk0zaDckjWjbaeaUS8IBemZMaHsvA72Y6Ek-uwIU8uQmxCr6VzHAzJpqMTcEFtrzQ7POibQE1N1G4b3_eYgOFwc5YNL-3JWtCWa7Zi-wbFXjzS7hyWO0]--></g></svg>