<?xml version="1.0" encoding="us-ascii" standalone="no"?><svg xmlns="http://www.w3.org/2000/svg" xmlns:xlink="http://www.w3.org/1999/xlink" contentStyleType="text/css" height="1344px" preserveAspectRatio="none" style="width:1518px;height:1344px;background:#FFFFFF;" version="1.1" viewBox="0 0 1518 1344" width="1518px" zoomAndPan="magnify"><defs/><g><rect fill="#FFFFFF" height="1153.6875" style="stroke:#181818;stroke-width:1.0;" width="10" x="18.5" y="91.4883"/><rect fill="#FFFFFF" height="146.5527" style="stroke:#181818;stroke-width:1.0;" width="10" x="242.5" y="112.7988"/><rect fill="#FFFFFF" height="188.8633" style="stroke:#181818;stroke-width:1.0;" width="10" x="242.5" y="303.9727"/><rect fill="#FFFFFF" height="337.7266" style="stroke:#181818;stroke-width:1.0;" width="10" x="242.5" y="537.457"/><rect fill="#FFFFFF" height="349.6816" style="stroke:#181818;stroke-width:1.0;" width="10" x="242.5" y="904.4941"/><rect fill="#FFFFFF" height="87.9316" style="stroke:#181818;stroke-width:1.0;" width="10" x="391.5" y="142.1094"/><rect fill="#FFFFFF" height="130.2422" style="stroke:#181818;stroke-width:1.0;" width="10" x="514.5" y="333.2832"/><rect fill="#FFFFFF" height="87.9316" style="stroke:#181818;stroke-width:1.0;" width="10" x="687.5" y="566.7676"/><rect fill="#FFFFFF" height="117.2422" style="stroke:#181818;stroke-width:1.0;" width="10" x="812.5" y="728.6309"/><rect fill="#FFFFFF" height="275.75" style="stroke:#181818;stroke-width:1.0;" width="10" x="812.5" y="978.4258"/><rect fill="#FFFFFF" height="191.1738" style="stroke:#181818;stroke-width:1.0;" width="10" x="1154.5" y="787.252"/><rect fill="#FFFFFF" height="29.3105" style="stroke:#181818;stroke-width:1.0;" width="10" x="1260.5" y="171.4199"/><rect fill="#FFFFFF" height="29.3105" style="stroke:#181818;stroke-width:1.0;" width="10" x="1260.5" y="362.5938"/><rect fill="none" height="149.5078" style="stroke:#000000;stroke-width:1.5;" width="1312" x="199" y="1052.0469"/><line style="stroke:#181818;stroke-width:0.5;stroke-dasharray:5.0,5.0;" x1="23" x2="23" y1="81.4883" y2="1263.1758"/><line style="stroke:#181818;stroke-width:0.5;stroke-dasharray:5.0,5.0;" x1="247" x2="247" y1="81.4883" y2="1263.1758"/><line style="stroke:#181818;stroke-width:0.5;stroke-dasharray:5.0,5.0;" x1="396" x2="396" y1="81.4883" y2="1263.1758"/><line style="stroke:#181818;stroke-width:0.5;stroke-dasharray:5.0,5.0;" x1="519" x2="519" y1="81.4883" y2="1263.1758"/><line style="stroke:#181818;stroke-width:0.5;stroke-dasharray:5.0,5.0;" x1="692.5" x2="692.5" y1="81.4883" y2="1263.1758"/><line style="stroke:#181818;stroke-width:0.5;stroke-dasharray:5.0,5.0;" x1="817.5" x2="817.5" y1="81.4883" y2="1263.1758"/><line style="stroke:#181818;stroke-width:0.5;stroke-dasharray:5.0,5.0;" x1="1159" x2="1159" y1="81.4883" y2="1263.1758"/><line style="stroke:#181818;stroke-width:0.5;stroke-dasharray:5.0,5.0;" x1="1265" x2="1265" y1="81.4883" y2="1263.1758"/><line style="stroke:#181818;stroke-width:0.5;stroke-dasharray:5.0,5.0;" x1="1331" x2="1331" y1="81.4883" y2="1263.1758"/><line style="stroke:#181818;stroke-width:0.5;stroke-dasharray:5.0,5.0;" x1="1403" x2="1403" y1="81.4883" y2="1263.1758"/><line style="stroke:#181818;stroke-width:0.5;stroke-dasharray:5.0,5.0;" x1="1475" x2="1475" y1="81.4883" y2="1263.1758"/><text fill="#000000" font-family="sans-serif" font-size="14" lengthAdjust="spacing" textLength="31" x="5" y="78.5352">User</text><ellipse cx="23.5" cy="13.5" fill="#E2E2F0" rx="8" ry="8" style="stroke:#181818;stroke-width:0.5;"/><path d="M23.5,21.5 L23.5,48.5 M10.5,29.5 L36.5,29.5 M23.5,48.5 L10.5,63.5 M23.5,48.5 L36.5,63.5 " fill="none" style="stroke:#181818;stroke-width:0.5;"/><text fill="#000000" font-family="sans-serif" font-size="14" lengthAdjust="spacing" textLength="31" x="5" y="1275.7109">User</text><ellipse cx="23.5" cy="1287.1641" fill="#E2E2F0" rx="8" ry="8" style="stroke:#181818;stroke-width:0.5;"/><path d="M23.5,1295.1641 L23.5,1322.1641 M10.5,1303.1641 L36.5,1303.1641 M23.5,1322.1641 L10.5,1337.1641 M23.5,1322.1641 L36.5,1337.1641 " fill="none" style="stroke:#181818;stroke-width:0.5;"/><rect fill="#E2E2F0" height="30.4883" rx="2.5" ry="2.5" style="stroke:#181818;stroke-width:0.5;" width="77" x="209" y="50"/><text fill="#000000" font-family="sans-serif" font-size="14" lengthAdjust="spacing" textLength="63" x="216" y="70.5352">Frontend</text><rect fill="#E2E2F0" height="30.4883" rx="2.5" ry="2.5" style="stroke:#181818;stroke-width:0.5;" width="77" x="209" y="1262.1758"/><text fill="#000000" font-family="sans-serif" font-size="14" lengthAdjust="spacing" textLength="63" x="216" y="1282.7109">Frontend</text><rect fill="#E2E2F0" height="30.4883" rx="2.5" ry="2.5" style="stroke:#181818;stroke-width:0.5;" width="95" x="349" y="50"/><text fill="#000000" font-family="sans-serif" font-size="14" lengthAdjust="spacing" textLength="81" x="356" y="70.5352">Cart Service</text><rect fill="#E2E2F0" height="30.4883" rx="2.5" ry="2.5" style="stroke:#181818;stroke-width:0.5;" width="95" x="349" y="1262.1758"/><text fill="#000000" font-family="sans-serif" font-size="14" lengthAdjust="spacing" textLength="81" x="356" y="1282.7109">Cart Service</text><rect fill="#E2E2F0" height="30.4883" rx="2.5" ry="2.5" style="stroke:#181818;stroke-width:0.5;" width="131" x="454" y="50"/><text fill="#000000" font-family="sans-serif" font-size="14" lengthAdjust="spacing" textLength="117" x="461" y="70.5352">Checkout Service</text><rect fill="#E2E2F0" height="30.4883" rx="2.5" ry="2.5" style="stroke:#181818;stroke-width:0.5;" width="131" x="454" y="1262.1758"/><text fill="#000000" font-family="sans-serif" font-size="14" lengthAdjust="spacing" textLength="117" x="461" y="1282.7109">Checkout Service</text><rect fill="#E2E2F0" height="30.4883" rx="2.5" ry="2.5" style="stroke:#181818;stroke-width:0.5;" width="106" x="639.5" y="50"/><text fill="#000000" font-family="sans-serif" font-size="14" lengthAdjust="spacing" textLength="92" x="646.5" y="70.5352">Order Service</text><rect fill="#E2E2F0" height="30.4883" rx="2.5" ry="2.5" style="stroke:#181818;stroke-width:0.5;" width="106" x="639.5" y="1262.1758"/><text fill="#000000" font-family="sans-serif" font-size="14" lengthAdjust="spacing" textLength="92" x="646.5" y="1282.7109">Order Service</text><rect fill="#E2E2F0" height="30.4883" rx="2.5" ry="2.5" style="stroke:#181818;stroke-width:0.5;" width="124" x="755.5" y="50"/><text fill="#000000" font-family="sans-serif" font-size="14" lengthAdjust="spacing" textLength="110" x="762.5" y="70.5352">Payment Service</text><rect fill="#E2E2F0" height="30.4883" rx="2.5" ry="2.5" style="stroke:#181818;stroke-width:0.5;" width="124" x="755.5" y="1262.1758"/><text fill="#000000" font-family="sans-serif" font-size="14" lengthAdjust="spacing" textLength="110" x="762.5" y="1282.7109">Payment Service</text><rect fill="#E2E2F0" height="30.4883" rx="2.5" ry="2.5" style="stroke:#181818;stroke-width:0.5;" width="133" x="1093" y="50"/><text fill="#000000" font-family="sans-serif" font-size="14" lengthAdjust="spacing" textLength="119" x="1100" y="70.5352">Payment Gateway</text><rect fill="#E2E2F0" height="30.4883" rx="2.5" ry="2.5" style="stroke:#181818;stroke-width:0.5;" width="133" x="1093" y="1262.1758"/><text fill="#000000" font-family="sans-serif" font-size="14" lengthAdjust="spacing" textLength="119" x="1100" y="1282.7109">Payment Gateway</text><text fill="#000000" font-family="sans-serif" font-size="14" lengthAdjust="spacing" textLength="53" x="1236" y="78.5352">Catalog</text><path d="M1247.5,29 C1247.5,19 1265.5,19 1265.5,19 C1265.5,19 1283.5,19 1283.5,29 L1283.5,55 C1283.5,65 1265.5,65 1265.5,65 C1265.5,65 1247.5,65 1247.5,55 L1247.5,29 " fill="#E2E2F0" style="stroke:#181818;stroke-width:1.5;"/><path d="M1247.5,29 C1247.5,39 1265.5,39 1265.5,39 C1265.5,39 1283.5,39 1283.5,29 " fill="none" style="stroke:#181818;stroke-width:1.5;"/><text fill="#000000" font-family="sans-serif" font-size="14" lengthAdjust="spacing" textLength="53" x="1236" y="1275.7109">Catalog</text><path d="M1247.5,1288.6641 C1247.5,1278.6641 1265.5,1278.6641 1265.5,1278.6641 C1265.5,1278.6641 1283.5,1278.6641 1283.5,1288.6641 L1283.5,1314.6641 C1283.5,1324.6641 1265.5,1324.6641 1265.5,1324.6641 C1265.5,1324.6641 1247.5,1324.6641 1247.5,1314.6641 L1247.5,1288.6641 " fill="#E2E2F0" style="stroke:#181818;stroke-width:1.5;"/><path d="M1247.5,1288.6641 C1247.5,1298.6641 1265.5,1298.6641 1265.5,1298.6641 C1265.5,1298.6641 1283.5,1298.6641 1283.5,1288.6641 " fill="none" style="stroke:#181818;stroke-width:1.5;"/><text fill="#000000" font-family="sans-serif" font-size="14" lengthAdjust="spacing" textLength="47" x="1305" y="78.5352">Orders</text><path d="M1313.5,29 C1313.5,19 1331.5,19 1331.5,19 C1331.5,19 1349.5,19 1349.5,29 L1349.5,55 C1349.5,65 1331.5,65 1331.5,65 C1331.5,65 1313.5,65 1313.5,55 L1313.5,29 " fill="#E2E2F0" style="stroke:#181818;stroke-width:1.5;"/><path d="M1313.5,29 C1313.5,39 1331.5,39 1331.5,39 C1331.5,39 1349.5,39 1349.5,29 " fill="none" style="stroke:#181818;stroke-width:1.5;"/><text fill="#000000" font-family="sans-serif" font-size="14" lengthAdjust="spacing" textLength="47" x="1305" y="1275.7109">Orders</text><path d="M1313.5,1288.6641 C1313.5,1278.6641 1331.5,1278.6641 1331.5,1278.6641 C1331.5,1278.6641 1349.5,1278.6641 1349.5,1288.6641 L1349.5,1314.6641 C1349.5,1324.6641 1331.5,1324.6641 1331.5,1324.6641 C1331.5,1324.6641 1313.5,1324.6641 1313.5,1314.6641 L1313.5,1288.6641 " fill="#E2E2F0" style="stroke:#181818;stroke-width:1.5;"/><path d="M1313.5,1288.6641 C1313.5,1298.6641 1331.5,1298.6641 1331.5,1298.6641 C1331.5,1298.6641 1349.5,1298.6641 1349.5,1288.6641 " fill="none" style="stroke:#181818;stroke-width:1.5;"/><text fill="#000000" font-family="sans-serif" font-size="14" lengthAdjust="spacing" textLength="65" x="1368" y="78.5352">Payments</text><path d="M1385.5,29 C1385.5,19 1403.5,19 1403.5,19 C1403.5,19 1421.5,19 1421.5,29 L1421.5,55 C1421.5,65 1403.5,65 1403.5,65 C1403.5,65 1385.5,65 1385.5,55 L1385.5,29 " fill="#E2E2F0" style="stroke:#181818;stroke-width:1.5;"/><path d="M1385.5,29 C1385.5,39 1403.5,39 1403.5,39 C1403.5,39 1421.5,39 1421.5,29 " fill="none" style="stroke:#181818;stroke-width:1.5;"/><text fill="#000000" font-family="sans-serif" font-size="14" lengthAdjust="spacing" textLength="65" x="1368" y="1275.7109">Payments</text><path d="M1385.5,1288.6641 C1385.5,1278.6641 1403.5,1278.6641 1403.5,1278.6641 C1403.5,1278.6641 1421.5,1278.6641 1421.5,1288.6641 L1421.5,1314.6641 C1421.5,1324.6641 1403.5,1324.6641 1403.5,1324.6641 C1403.5,1324.6641 1385.5,1324.6641 1385.5,1314.6641 L1385.5,1288.6641 " fill="#E2E2F0" style="stroke:#181818;stroke-width:1.5;"/><path d="M1385.5,1288.6641 C1385.5,1298.6641 1403.5,1298.6641 1403.5,1298.6641 C1403.5,1298.6641 1421.5,1298.6641 1421.5,1288.6641 " fill="none" style="stroke:#181818;stroke-width:1.5;"/><rect fill="#E2E2F0" height="30.4883" rx="2.5" ry="2.5" style="stroke:#181818;stroke-width:0.5;" width="52" x="1449" y="50"/><text fill="#000000" font-family="sans-serif" font-size="14" lengthAdjust="spacing" textLength="38" x="1456" y="70.5352">Kafka</text><rect fill="#E2E2F0" height="30.4883" rx="2.5" ry="2.5" style="stroke:#181818;stroke-width:0.5;" width="52" x="1449" y="1262.1758"/><text fill="#000000" font-family="sans-serif" font-size="14" lengthAdjust="spacing" textLength="38" x="1456" y="1282.7109">Kafka</text><rect fill="#FFFFFF" height="1153.6875" style="stroke:#181818;stroke-width:1.0;" width="10" x="18.5" y="91.4883"/><rect fill="#FFFFFF" height="146.5527" style="stroke:#181818;stroke-width:1.0;" width="10" x="242.5" y="112.7988"/><rect fill="#FFFFFF" height="188.8633" style="stroke:#181818;stroke-width:1.0;" width="10" x="242.5" y="303.9727"/><rect fill="#FFFFFF" height="337.7266" style="stroke:#181818;stroke-width:1.0;" width="10" x="242.5" y="537.457"/><rect fill="#FFFFFF" height="349.6816" style="stroke:#181818;stroke-width:1.0;" width="10" x="242.5" y="904.4941"/><rect fill="#FFFFFF" height="87.9316" style="stroke:#181818;stroke-width:1.0;" width="10" x="391.5" y="142.1094"/><rect fill="#FFFFFF" height="130.2422" style="stroke:#181818;stroke-width:1.0;" width="10" x="514.5" y="333.2832"/><rect fill="#FFFFFF" height="87.9316" style="stroke:#181818;stroke-width:1.0;" width="10" x="687.5" y="566.7676"/><rect fill="#FFFFFF" height="117.2422" style="stroke:#181818;stroke-width:1.0;" width="10" x="812.5" y="728.6309"/><rect fill="#FFFFFF" height="275.75" style="stroke:#181818;stroke-width:1.0;" width="10" x="812.5" y="978.4258"/><rect fill="#FFFFFF" height="191.1738" style="stroke:#181818;stroke-width:1.0;" width="10" x="1154.5" y="787.252"/><rect fill="#FFFFFF" height="29.3105" style="stroke:#181818;stroke-width:1.0;" width="10" x="1260.5" y="171.4199"/><rect fill="#FFFFFF" height="29.3105" style="stroke:#181818;stroke-width:1.0;" width="10" x="1260.5" y="362.5938"/><polygon fill="#181818" points="230.5,108.7988,240.5,112.7988,230.5,116.7988,234.5,112.7988" style="stroke:#181818;stroke-width:1.0;"/><line style="stroke:#181818;stroke-width:1.0;" x1="28.5" x2="236.5" y1="112.7988" y2="112.7988"/><text fill="#000000" font-family="sans-serif" font-size="13" lengthAdjust="spacing" textLength="61" x="35.5" y="108.0566">Open cart</text><polygon fill="#181818" points="379.5,138.1094,389.5,142.1094,379.5,146.1094,383.5,142.1094" style="stroke:#181818;stroke-width:1.0;"/><line style="stroke:#181818;stroke-width:1.0;" x1="252.5" x2="385.5" y1="142.1094" y2="142.1094"/><text fill="#000000" font-family="sans-serif" font-size="13" lengthAdjust="spacing" textLength="113" x="259.5" y="137.3672">GET /cart/{userId}</text><polygon fill="#181818" points="1248.5,167.4199,1258.5,171.4199,1248.5,175.4199,1252.5,171.4199" style="stroke:#181818;stroke-width:1.0;"/><line style="stroke:#181818;stroke-width:1.0;" x1="401.5" x2="1254.5" y1="171.4199" y2="171.4199"/><text fill="#000000" font-family="sans-serif" font-size="13" lengthAdjust="spacing" textLength="103" x="408.5" y="166.6777">Get product info</text><polygon fill="#181818" points="412.5,196.7305,402.5,200.7305,412.5,204.7305,408.5,200.7305" style="stroke:#181818;stroke-width:1.0;"/><line style="stroke:#181818;stroke-width:1.0;stroke-dasharray:2.0,2.0;" x1="406.5" x2="1264.5" y1="200.7305" y2="200.7305"/><text fill="#000000" font-family="sans-serif" font-size="13" lengthAdjust="spacing" textLength="117" x="418.5" y="195.9883">Return Cart details</text><polygon fill="#181818" points="263.5,226.041,253.5,230.041,263.5,234.041,259.5,230.041" style="stroke:#181818;stroke-width:1.0;"/><line style="stroke:#181818;stroke-width:1.0;stroke-dasharray:2.0,2.0;" x1="257.5" x2="395.5" y1="230.041" y2="230.041"/><text fill="#000000" font-family="sans-serif" font-size="13" lengthAdjust="spacing" textLength="115" x="269.5" y="225.2988">Return cart details</text><polygon fill="#181818" points="39.5,255.3516,29.5,259.3516,39.5,263.3516,35.5,259.3516" style="stroke:#181818;stroke-width:1.0;"/><line style="stroke:#181818;stroke-width:1.0;stroke-dasharray:2.0,2.0;" x1="33.5" x2="246.5" y1="259.3516" y2="259.3516"/><text fill="#000000" font-family="sans-serif" font-size="13" lengthAdjust="spacing" textLength="75" x="45.5" y="254.6094">Display cart</text><polygon fill="#181818" points="230.5,299.9727,240.5,303.9727,230.5,307.9727,234.5,303.9727" style="stroke:#181818;stroke-width:1.0;"/><line style="stroke:#181818;stroke-width:1.0;" x1="28.5" x2="236.5" y1="303.9727" y2="303.9727"/><text fill="#000000" font-family="sans-serif" font-size="13" lengthAdjust="spacing" textLength="80" x="35.5" y="283.9199">User presses</text><text fill="#000000" font-family="sans-serif" font-size="13" lengthAdjust="spacing" textLength="152" x="35.5" y="299.2305">"Go to checkout" button</text><polygon fill="#181818" points="502.5,329.2832,512.5,333.2832,502.5,337.2832,506.5,333.2832" style="stroke:#181818;stroke-width:1.0;"/><line style="stroke:#181818;stroke-width:1.0;" x1="252.5" x2="508.5" y1="333.2832" y2="333.2832"/><text fill="#000000" font-family="sans-serif" font-size="13" lengthAdjust="spacing" textLength="101" x="259.5" y="328.541">POST /checkout</text><polygon fill="#181818" points="1248.5,358.5938,1258.5,362.5938,1248.5,366.5938,1252.5,362.5938" style="stroke:#181818;stroke-width:1.0;"/><line style="stroke:#181818;stroke-width:1.0;" x1="524.5" x2="1254.5" y1="362.5938" y2="362.5938"/><text fill="#000000" font-family="sans-serif" font-size="13" lengthAdjust="spacing" textLength="103" x="531.5" y="357.8516">Get product info</text><polygon fill="#181818" points="535.5,387.9043,525.5,391.9043,535.5,395.9043,531.5,391.9043" style="stroke:#181818;stroke-width:1.0;"/><line style="stroke:#181818;stroke-width:1.0;stroke-dasharray:2.0,2.0;" x1="529.5" x2="1264.5" y1="391.9043" y2="391.9043"/><text fill="#000000" font-family="sans-serif" font-size="13" lengthAdjust="spacing" textLength="72" x="541.5" y="387.1621">Return data</text><line style="stroke:#181818;stroke-width:1.0;" x1="524.5" x2="566.5" y1="421.2148" y2="421.2148"/><line style="stroke:#181818;stroke-width:1.0;" x1="566.5" x2="566.5" y1="421.2148" y2="434.2148"/><line style="stroke:#181818;stroke-width:1.0;" x1="525.5" x2="566.5" y1="434.2148" y2="434.2148"/><polygon fill="#181818" points="535.5,430.2148,525.5,434.2148,535.5,438.2148,531.5,434.2148" style="stroke:#181818;stroke-width:1.0;"/><text fill="#000000" font-family="sans-serif" font-size="13" lengthAdjust="spacing" textLength="149" x="531.5" y="416.4727">Calculate checkout info</text><polygon fill="#181818" points="263.5,459.5254,253.5,463.5254,263.5,467.5254,259.5,463.5254" style="stroke:#181818;stroke-width:1.0;"/><line style="stroke:#181818;stroke-width:1.0;stroke-dasharray:2.0,2.0;" x1="257.5" x2="518.5" y1="463.5254" y2="463.5254"/><text fill="#000000" font-family="sans-serif" font-size="13" lengthAdjust="spacing" textLength="132" x="269.5" y="458.7832">Return checkout info</text><polygon fill="#181818" points="39.5,488.8359,29.5,492.8359,39.5,496.8359,35.5,492.8359" style="stroke:#181818;stroke-width:1.0;"/><line style="stroke:#181818;stroke-width:1.0;stroke-dasharray:2.0,2.0;" x1="33.5" x2="246.5" y1="492.8359" y2="492.8359"/><text fill="#000000" font-family="sans-serif" font-size="13" lengthAdjust="spacing" textLength="140" x="45.5" y="488.0938">Display Checkout info</text><polygon fill="#181818" points="230.5,533.457,240.5,537.457,230.5,541.457,234.5,537.457" style="stroke:#181818;stroke-width:1.0;"/><line style="stroke:#181818;stroke-width:1.0;" x1="28.5" x2="236.5" y1="537.457" y2="537.457"/><text fill="#000000" font-family="sans-serif" font-size="13" lengthAdjust="spacing" textLength="80" x="35.5" y="517.4043">User presses</text><text fill="#000000" font-family="sans-serif" font-size="13" lengthAdjust="spacing" textLength="125" x="35.5" y="532.7148">"Place order" button</text><polygon fill="#181818" points="675.5,562.7676,685.5,566.7676,675.5,570.7676,679.5,566.7676" style="stroke:#181818;stroke-width:1.0;"/><line style="stroke:#181818;stroke-width:1.0;" x1="252.5" x2="681.5" y1="566.7676" y2="566.7676"/><text fill="#000000" font-family="sans-serif" font-size="13" lengthAdjust="spacing" textLength="83" x="259.5" y="562.0254">POST /orders</text><polygon fill="#181818" points="1319.5,592.0781,1329.5,596.0781,1319.5,600.0781,1323.5,596.0781" style="stroke:#181818;stroke-width:1.0;"/><line style="stroke:#181818;stroke-width:1.0;" x1="697.5" x2="1325.5" y1="596.0781" y2="596.0781"/><text fill="#000000" font-family="sans-serif" font-size="13" lengthAdjust="spacing" textLength="184" x="704.5" y="591.3359">Create Order (status: created)</text><polygon fill="#181818" points="1463,621.3887,1473,625.3887,1463,629.3887,1467,625.3887" style="stroke:#181818;stroke-width:1.0;"/><line style="stroke:#181818;stroke-width:1.0;" x1="697.5" x2="1469" y1="625.3887" y2="625.3887"/><text fill="#000000" font-family="sans-serif" font-size="13" lengthAdjust="spacing" textLength="133" x="704.5" y="620.6465">Publish order.created</text><polygon fill="#181818" points="263.5,650.6992,253.5,654.6992,263.5,658.6992,259.5,654.6992" style="stroke:#181818;stroke-width:1.0;"/><line style="stroke:#181818;stroke-width:1.0;stroke-dasharray:2.0,2.0;" x1="257.5" x2="691.5" y1="654.6992" y2="654.6992"/><text fill="#000000" font-family="sans-serif" font-size="13" lengthAdjust="spacing" textLength="181" x="269.5" y="649.957">Order confirmation response</text><polygon fill="#181818" points="39.5,695.3203,29.5,699.3203,39.5,703.3203,35.5,699.3203" style="stroke:#181818;stroke-width:1.0;"/><line style="stroke:#181818;stroke-width:1.0;stroke-dasharray:2.0,2.0;" x1="33.5" x2="241.5" y1="699.3203" y2="699.3203"/><text fill="#000000" font-family="sans-serif" font-size="13" lengthAdjust="spacing" textLength="105" x="45.5" y="679.2676">Display payment</text><text fill="#000000" font-family="sans-serif" font-size="13" lengthAdjust="spacing" textLength="137" x="45.5" y="694.5781">initialisation throbber</text><polygon fill="#181818" points="800.5,724.6309,810.5,728.6309,800.5,732.6309,804.5,728.6309" style="stroke:#181818;stroke-width:1.0;"/><line style="stroke:#181818;stroke-width:1.0;" x1="252.5" x2="806.5" y1="728.6309" y2="728.6309"/><text fill="#000000" font-family="sans-serif" font-size="13" lengthAdjust="spacing" textLength="104" x="259.5" y="723.8887">POST /payments</text><polygon fill="#181818" points="1391.5,753.9414,1401.5,757.9414,1391.5,761.9414,1395.5,757.9414" style="stroke:#181818;stroke-width:1.0;"/><line style="stroke:#181818;stroke-width:1.0;" x1="822.5" x2="1397.5" y1="757.9414" y2="757.9414"/><text fill="#000000" font-family="sans-serif" font-size="13" lengthAdjust="spacing" textLength="251" x="829.5" y="753.1992">Create Payment record (status: pending)</text><polygon fill="#181818" points="1142.5,783.252,1152.5,787.252,1142.5,791.252,1146.5,787.252" style="stroke:#181818;stroke-width:1.0;"/><line style="stroke:#181818;stroke-width:1.0;" x1="822.5" x2="1148.5" y1="787.252" y2="787.252"/><text fill="#000000" font-family="sans-serif" font-size="13" lengthAdjust="spacing" textLength="98" x="829.5" y="782.5098">Initate payment</text><polygon fill="#181818" points="833.5,812.5625,823.5,816.5625,833.5,820.5625,829.5,816.5625" style="stroke:#181818;stroke-width:1.0;"/><line style="stroke:#181818;stroke-width:1.0;stroke-dasharray:2.0,2.0;" x1="827.5" x2="1153.5" y1="816.5625" y2="816.5625"/><text fill="#000000" font-family="sans-serif" font-size="13" lengthAdjust="spacing" textLength="126" x="839.5" y="811.8203">Return Payment URL</text><polygon fill="#181818" points="263.5,841.873,253.5,845.873,263.5,849.873,259.5,845.873" style="stroke:#181818;stroke-width:1.0;"/><line style="stroke:#181818;stroke-width:1.0;stroke-dasharray:2.0,2.0;" x1="257.5" x2="816.5" y1="845.873" y2="845.873"/><text fill="#000000" font-family="sans-serif" font-size="13" lengthAdjust="spacing" textLength="199" x="269.5" y="841.1309">Provide URL to finalise payment</text><polygon fill="#181818" points="39.5,871.1836,29.5,875.1836,39.5,879.1836,35.5,875.1836" style="stroke:#181818;stroke-width:1.0;"/><line style="stroke:#181818;stroke-width:1.0;stroke-dasharray:2.0,2.0;" x1="33.5" x2="246.5" y1="875.1836" y2="875.1836"/><text fill="#000000" font-family="sans-serif" font-size="13" lengthAdjust="spacing" textLength="139" x="45.5" y="870.4414">Display payment page</text><polygon fill="#181818" points="230.5,900.4941,240.5,904.4941,230.5,908.4941,234.5,904.4941" style="stroke:#181818;stroke-width:1.0;"/><line style="stroke:#181818;stroke-width:1.0;" x1="28.5" x2="236.5" y1="904.4941" y2="904.4941"/><text fill="#000000" font-family="sans-serif" font-size="13" lengthAdjust="spacing" textLength="106" x="35.5" y="899.752">Finalise payment</text><polygon fill="#181818" points="39.5,945.1152,29.5,949.1152,39.5,953.1152,35.5,949.1152" style="stroke:#181818;stroke-width:1.0;"/><line style="stroke:#181818;stroke-width:1.0;" x1="33.5" x2="241.5" y1="949.1152" y2="949.1152"/><text fill="#000000" font-family="sans-serif" font-size="13" lengthAdjust="spacing" textLength="185" x="45.5" y="929.0625">Show throbber until receiving</text><text fill="#000000" font-family="sans-serif" font-size="13" lengthAdjust="spacing" textLength="94" x="45.5" y="944.373">payment result</text><polygon fill="#181818" points="833.5,974.4258,823.5,978.4258,833.5,982.4258,829.5,978.4258" style="stroke:#181818;stroke-width:1.0;"/><line style="stroke:#181818;stroke-width:1.0;" x1="827.5" x2="1158.5" y1="978.4258" y2="978.4258"/><text fill="#000000" font-family="sans-serif" font-size="13" lengthAdjust="spacing" textLength="313" x="839.5" y="973.6836">POST /payment-callback {status: success/failure}</text><polygon fill="#181818" points="1391.5,1003.7363,1401.5,1007.7363,1391.5,1011.7363,1395.5,1007.7363" style="stroke:#181818;stroke-width:1.0;"/><line style="stroke:#181818;stroke-width:1.0;" x1="822.5" x2="1397.5" y1="1007.7363" y2="1007.7363"/><text fill="#000000" font-family="sans-serif" font-size="13" lengthAdjust="spacing" textLength="225" x="829.5" y="1002.9941">Update Payment status (paid/failed)</text><polygon fill="#181818" points="1319.5,1033.0469,1329.5,1037.0469,1319.5,1041.0469,1323.5,1037.0469" style="stroke:#181818;stroke-width:1.0;"/><line style="stroke:#181818;stroke-width:1.0;" x1="822.5" x2="1325.5" y1="1037.0469" y2="1037.0469"/><text fill="#000000" font-family="sans-serif" font-size="13" lengthAdjust="spacing" textLength="259" x="829.5" y="1032.3047">Update Order status(paid/paymentFailed)</text><path d="M199,1052.0469 L261,1052.0469 L261,1059.3574 L251,1069.3574 L199,1069.3574 L199,1052.0469 " fill="#EEEEEE" style="stroke:#000000;stroke-width:1.5;"/><rect fill="none" height="149.5078" style="stroke:#000000;stroke-width:1.5;" width="1312" x="199" y="1052.0469"/><text fill="#000000" font-family="sans-serif" font-size="13" font-weight="bold" lengthAdjust="spacing" textLength="17" x="214" y="1065.6152">alt</text><text fill="#000000" font-family="sans-serif" font-size="11" font-weight="bold" lengthAdjust="spacing" textLength="102" x="276" y="1064.6816">[Payment Success]</text><polygon fill="#181818" points="1463,1086.668,1473,1090.668,1463,1094.668,1467,1090.668" style="stroke:#181818;stroke-width:1.0;"/><line style="stroke:#181818;stroke-width:1.0;" x1="822.5" x2="1469" y1="1090.668" y2="1090.668"/><text fill="#000000" font-family="sans-serif" font-size="13" lengthAdjust="spacing" textLength="114" x="829.5" y="1085.9258">Publish order.paid</text><polygon fill="#181818" points="263.5,1115.9785,253.5,1119.9785,263.5,1123.9785,259.5,1119.9785" style="stroke:#181818;stroke-width:1.0;"/><line style="stroke:#181818;stroke-width:1.0;stroke-dasharray:2.0,2.0;" x1="257.5" x2="811.5" y1="1119.9785" y2="1119.9785"/><text fill="#000000" font-family="sans-serif" font-size="13" lengthAdjust="spacing" textLength="95" x="269.5" y="1115.2363">Return success</text><line style="stroke:#000000;stroke-width:1.0;stroke-dasharray:2.0,2.0;" x1="199" x2="1511" y1="1128.9785" y2="1128.9785"/><text fill="#000000" font-family="sans-serif" font-size="11" font-weight="bold" lengthAdjust="spacing" textLength="92" x="204" y="1139.6133">[Payment Failed]</text><polygon fill="#181818" points="1463,1160.2441,1473,1164.2441,1463,1168.2441,1467,1164.2441" style="stroke:#181818;stroke-width:1.0;"/><line style="stroke:#181818;stroke-width:1.0;" x1="822.5" x2="1469" y1="1164.2441" y2="1164.2441"/><text fill="#000000" font-family="sans-serif" font-size="13" lengthAdjust="spacing" textLength="122" x="829.5" y="1159.502">Publish order.failed</text><polygon fill="#181818" points="263.5,1189.5547,253.5,1193.5547,263.5,1197.5547,259.5,1193.5547" style="stroke:#181818;stroke-width:1.0;"/><line style="stroke:#181818;stroke-width:1.0;stroke-dasharray:2.0,2.0;" x1="257.5" x2="811.5" y1="1193.5547" y2="1193.5547"/><text fill="#000000" font-family="sans-serif" font-size="13" lengthAdjust="spacing" textLength="65" x="269.5" y="1188.8125">Return fail</text><polygon fill="#181818" points="34.5,1241.1758,24.5,1245.1758,34.5,1249.1758,30.5,1245.1758" style="stroke:#181818;stroke-width:1.0;"/><line style="stroke:#181818;stroke-width:1.0;stroke-dasharray:2.0,2.0;" x1="28.5" x2="241.5" y1="1245.1758" y2="1245.1758"/><text fill="#000000" font-family="sans-serif" font-size="13" lengthAdjust="spacing" textLength="186" x="40.5" y="1225.123">Display the result of payment</text><text fill="#000000" font-family="sans-serif" font-size="13" lengthAdjust="spacing" textLength="142" x="40.5" y="1240.4336">depending on the case</text><!--SRC=[bLLDJ-Cm4BtdLunwWWFBlOSz46YAM2aMMMvSNDkX5i6ERAS88VxxZZ_IEA7TrHvIjPatR-OzpxYKEMtWoGfJzDGuoMHFbOFLncZbXE8he1OsT_DWYJ-W4UOWcGY0iba0zeAzwc41sYvGjU72p23r0a7envjGSnfo1bDH9zxfHyHK1QUExgWLlbj7E_qIUxYzoIAX0HihpmA9CuO8XcOL7sZxIaFeeIWeS_A0fQE7_WEkVg9ZQwXxeO1XueH18pTtFbusQwZkViErZrz_3fXspxyc81fQDW5uUuD8uQ0tcW_CWLIjpd3O6pvmbJWVXHkCWd10N3WgErjmCOSt0UqxJ6Xs3js4RX7iPQtXLjg-enzHKuP3LJFXuNjlXBN2FgjLfS5fO6aaLh0RdDFgb2bRL43gnjkIq9bId1vy_jUJxMIAFzvlPYH63ojfnuREHyRgaJXW5exD03ddzendPPu1I_U2VQVT8nrb0hIVrBzOLn-T2qWxGN2bwg2nzgwLHeINOVCkhADki6jWuIs_JCW7v1fsdRJxMFT7YeVmEDo1WMdLIlD6dTGAiELUAojoSVKPE_gqjCzAAkaanMAHnEsDtkrmaw8kSjILCZ9bU16Gq2_9b8stWH4CUvyauYvogLuknvHg3VTOsQSaveouAaWLcYRJz8p4Ju-_0aVoWHXza5purtxAMwcybeaqyuBymukUleZ5OEHRjLbIVv-2oDlizVlHHnYKavstGyW36e2EzqUBxD0v25fFE7t5QDVjA7k5pz54Ep26StdTuaqn6F4rKrUTEvcddkSd4ydWegUI1oO_U6GQqGIF0nR14PlwsgGKYhqV_nzYOmK0EJt1dY15vvkS91MYirEBiSHvjZQFp_bygC1PEttKRYz6stMRBG4NQJuXh03UG7I-Hvxc3m00]--></g></svg>