<?xml version="1.0" encoding="us-ascii" standalone="no"?><svg xmlns="http://www.w3.org/2000/svg" xmlns:xlink="http://www.w3.org/1999/xlink" contentStyleType="text/css" height="700px" preserveAspectRatio="none" style="width:518px;height:700px;background:#FFFFFF;" version="1.1" viewBox="0 0 518 700" width="518px" zoomAndPan="magnify"><defs/><g><!--class User--><g id="elem_User"><rect codeLine="2" fill="#F1F1F1" height="97.4648" id="User" rx="2.5" ry="2.5" style="stroke:#181818;stroke-width:0.5;" width="129" x="197.5" y="7"/><ellipse cx="242.25" cy="23" fill="#ADD1B2" rx="11" ry="11" style="stroke:#181818;stroke-width:1.0;"/><path d="M245.8643,29.5 L238.1445,29.5 L238.1445,17.1069 L245.8643,17.1069 L245.8643,19.2651 L240.5933,19.2651 L240.5933,21.938 L245.3662,21.938 L245.3662,24.0962 L240.5933,24.0962 L240.5933,27.3418 L245.8643,27.3418 Z " fill="#000000"/><text fill="#000000" font-family="sans-serif" font-size="14" lengthAdjust="spacing" textLength="31" x="262.75" y="28.291">User</text><line style="stroke:#181818;stroke-width:0.5;" x1="198.5" x2="325.5" y1="39" y2="39"/><ellipse cx="208.5" cy="52.7441" fill="#000000" rx="3" ry="3" style="stroke:#000000;stroke-width:1.0;"/><text fill="#000000" font-family="sans-serif" font-size="14" lengthAdjust="spacing" textLength="48" x="217.5" y="56.5352">id : INT</text><line style="stroke:#181818;stroke-width:1.0;" x1="198.5" x2="325.5" y1="63.4883" y2="63.4883"/><text fill="#000000" font-family="sans-serif" font-size="14" lengthAdjust="spacing" textLength="116" x="203.5" y="81.0234">email : VARCHAR</text><text fill="#000000" font-family="sans-serif" font-size="14" lengthAdjust="spacing" textLength="117" x="203.5" y="97.5117">name : VARCHAR</text></g><!--class Cart--><g id="elem_Cart"><rect codeLine="9" fill="#F1F1F1" height="80.9766" id="Cart" rx="2.5" ry="2.5" style="stroke:#181818;stroke-width:0.5;" width="130" x="7" y="197.95"/><ellipse cx="53.25" cy="213.95" fill="#ADD1B2" rx="11" ry="11" style="stroke:#181818;stroke-width:1.0;"/><path d="M56.8643,220.45 L49.1445,220.45 L49.1445,208.0569 L56.8643,208.0569 L56.8643,210.2151 L51.5933,210.2151 L51.5933,212.888 L56.3662,212.888 L56.3662,215.0462 L51.5933,215.0462 L51.5933,218.2918 L56.8643,218.2918 Z " fill="#000000"/><text fill="#000000" font-family="sans-serif" font-size="14" lengthAdjust="spacing" textLength="29" x="73.75" y="219.241">Cart</text><line style="stroke:#181818;stroke-width:0.5;" x1="8" x2="136" y1="229.95" y2="229.95"/><ellipse cx="18" cy="243.6941" fill="#000000" rx="3" ry="3" style="stroke:#000000;stroke-width:1.0;"/><text fill="#000000" font-family="sans-serif" font-size="14" lengthAdjust="spacing" textLength="85" x="27" y="247.4852">user_id : INT</text><text fill="#000000" font-family="sans-serif" font-size="14" lengthAdjust="spacing" textLength="104" x="27" y="263.9734">item_ids : TEXT</text><line style="stroke:#181818;stroke-width:0.5;" x1="8" x2="136" y1="270.9266" y2="270.9266"/></g><!--class Book--><g id="elem_Book"><rect codeLine="14" fill="#F1F1F1" height="97.4648" id="Book" rx="2.5" ry="2.5" style="stroke:#181818;stroke-width:0.5;" width="133" x="10.5" y="388.9"/><ellipse cx="55.75" cy="404.9" fill="#ADD1B2" rx="11" ry="11" style="stroke:#181818;stroke-width:1.0;"/><path d="M59.3643,411.4 L51.6445,411.4 L51.6445,399.0069 L59.3643,399.0069 L59.3643,401.1651 L54.0933,401.1651 L54.0933,403.838 L58.8662,403.838 L58.8662,405.9962 L54.0933,405.9962 L54.0933,409.2418 L59.3643,409.2418 Z " fill="#000000"/><text fill="#000000" font-family="sans-serif" font-size="14" lengthAdjust="spacing" textLength="34" x="76.25" y="410.191">Book</text><line style="stroke:#181818;stroke-width:0.5;" x1="11.5" x2="142.5" y1="420.9" y2="420.9"/><ellipse cx="21.5" cy="434.6441" fill="#000000" rx="3" ry="3" style="stroke:#000000;stroke-width:1.0;"/><text fill="#000000" font-family="sans-serif" font-size="14" lengthAdjust="spacing" textLength="48" x="30.5" y="438.4352">id : INT</text><text fill="#000000" font-family="sans-serif" font-size="14" lengthAdjust="spacing" textLength="105" x="30.5" y="454.9234">title : VARCHAR</text><text fill="#000000" font-family="sans-serif" font-size="14" lengthAdjust="spacing" textLength="107" x="30.5" y="471.4117">price : DECIMAL</text><line style="stroke:#181818;stroke-width:0.5;" x1="11.5" x2="142.5" y1="478.3648" y2="478.3648"/></g><!--class Stock--><g id="elem_Stock"><rect codeLine="20" fill="#F1F1F1" height="80.9766" id="Stock" rx="2.5" ry="2.5" style="stroke:#181818;stroke-width:0.5;" width="117" x="18.5" y="596.35"/><ellipse cx="55.1" cy="612.35" fill="#ADD1B2" rx="11" ry="11" style="stroke:#181818;stroke-width:1.0;"/><path d="M58.7143,618.85 L50.9945,618.85 L50.9945,606.4569 L58.7143,606.4569 L58.7143,608.6151 L53.4433,608.6151 L53.4433,611.288 L58.2162,611.288 L58.2162,613.4462 L53.4433,613.4462 L53.4433,616.6918 L58.7143,616.6918 Z " fill="#000000"/><text fill="#000000" font-family="sans-serif" font-size="14" lengthAdjust="spacing" textLength="37" x="73.9" y="617.641">Stock</text><line style="stroke:#181818;stroke-width:0.5;" x1="19.5" x2="134.5" y1="628.35" y2="628.35"/><ellipse cx="29.5" cy="642.0941" fill="#000000" rx="3" ry="3" style="stroke:#000000;stroke-width:1.0;"/><text fill="#000000" font-family="sans-serif" font-size="14" lengthAdjust="spacing" textLength="90" x="38.5" y="645.8852">book_id : INT</text><text fill="#000000" font-family="sans-serif" font-size="14" lengthAdjust="spacing" textLength="91" x="38.5" y="662.3734">quantity : INT</text><line style="stroke:#181818;stroke-width:0.5;" x1="19.5" x2="134.5" y1="669.3266" y2="669.3266"/></g><!--class Order--><g id="elem_Order"><rect codeLine="25" fill="#F1F1F1" height="113.9531" id="Order" rx="2.5" ry="2.5" style="stroke:#181818;stroke-width:0.5;" width="179" x="172.5" y="181.46"/><ellipse cx="237.75" cy="197.46" fill="#ADD1B2" rx="11" ry="11" style="stroke:#181818;stroke-width:1.0;"/><path d="M241.3643,203.96 L233.6445,203.96 L233.6445,191.5669 L241.3643,191.5669 L241.3643,193.7251 L236.0933,193.7251 L236.0933,196.398 L240.8662,196.398 L240.8662,198.5562 L236.0933,198.5562 L236.0933,201.8018 L241.3643,201.8018 Z " fill="#000000"/><text fill="#000000" font-family="sans-serif" font-size="14" lengthAdjust="spacing" textLength="40" x="258.25" y="202.751">Order</text><line style="stroke:#181818;stroke-width:0.5;" x1="173.5" x2="350.5" y1="213.46" y2="213.46"/><ellipse cx="183.5" cy="227.2041" fill="#000000" rx="3" ry="3" style="stroke:#000000;stroke-width:1.0;"/><text fill="#000000" font-family="sans-serif" font-size="14" lengthAdjust="spacing" textLength="48" x="192.5" y="230.9952">id : INT</text><text fill="#000000" font-family="sans-serif" font-size="14" lengthAdjust="spacing" textLength="85" x="192.5" y="247.4834">user_id : INT</text><text fill="#000000" font-family="sans-serif" font-size="14" lengthAdjust="spacing" textLength="120" x="192.5" y="263.9717">status : VARCHAR</text><text fill="#000000" font-family="sans-serif" font-size="14" lengthAdjust="spacing" textLength="153" x="192.5" y="280.46">created_at : DATETIME</text><line style="stroke:#181818;stroke-width:0.5;" x1="173.5" x2="350.5" y1="287.4131" y2="287.4131"/></g><!--class Payment--><g id="elem_Payment"><rect codeLine="32" fill="#F1F1F1" height="130.4414" id="Payment" rx="2.5" ry="2.5" style="stroke:#181818;stroke-width:0.5;" width="181" x="330.5" y="372.42"/><ellipse cx="387.75" cy="388.42" fill="#ADD1B2" rx="11" ry="11" style="stroke:#181818;stroke-width:1.0;"/><path d="M391.3643,394.92 L383.6445,394.92 L383.6445,382.5269 L391.3643,382.5269 L391.3643,384.6851 L386.0933,384.6851 L386.0933,387.358 L390.8662,387.358 L390.8662,389.5162 L386.0933,389.5162 L386.0933,392.7618 L391.3643,392.7618 Z " fill="#000000"/><text fill="#000000" font-family="sans-serif" font-size="14" lengthAdjust="spacing" textLength="58" x="408.25" y="393.711">Payment</text><line style="stroke:#181818;stroke-width:0.5;" x1="331.5" x2="510.5" y1="404.42" y2="404.42"/><ellipse cx="341.5" cy="418.1641" fill="#000000" rx="3" ry="3" style="stroke:#000000;stroke-width:1.0;"/><text fill="#000000" font-family="sans-serif" font-size="14" lengthAdjust="spacing" textLength="48" x="350.5" y="421.9552">id : INT</text><text fill="#000000" font-family="sans-serif" font-size="14" lengthAdjust="spacing" textLength="85" x="350.5" y="438.4434">user_id : INT</text><text fill="#000000" font-family="sans-serif" font-size="14" lengthAdjust="spacing" textLength="93" x="350.5" y="454.9317">order_id : INT</text><text fill="#000000" font-family="sans-serif" font-size="14" lengthAdjust="spacing" textLength="155" x="350.5" y="471.42">gateway_id : VARCHAR</text><text fill="#000000" font-family="sans-serif" font-size="14" lengthAdjust="spacing" textLength="120" x="350.5" y="487.9083">status : VARCHAR</text><line style="stroke:#181818;stroke-width:0.5;" x1="331.5" x2="510.5" y1="494.8614" y2="494.8614"/></g><!--class OrderItem--><g id="elem_OrderItem"><rect codeLine="40" fill="#F1F1F1" height="113.9531" id="OrderItem" rx="2.5" ry="2.5" style="stroke:#181818;stroke-width:0.5;" width="119" x="173.5" y="579.86"/><ellipse cx="196.15" cy="595.86" fill="#ADD1B2" rx="11" ry="11" style="stroke:#181818;stroke-width:1.0;"/><path d="M199.7643,602.36 L192.0445,602.36 L192.0445,589.9669 L199.7643,589.9669 L199.7643,592.1251 L194.4933,592.1251 L194.4933,594.798 L199.2662,594.798 L199.2662,596.9562 L194.4933,596.9562 L194.4933,600.2018 L199.7643,600.2018 Z " fill="#000000"/><text fill="#000000" font-family="sans-serif" font-size="14" lengthAdjust="spacing" textLength="70" x="211.85" y="601.151">OrderItem</text><line style="stroke:#181818;stroke-width:0.5;" x1="174.5" x2="291.5" y1="611.86" y2="611.86"/><ellipse cx="184.5" cy="625.6041" fill="#000000" rx="3" ry="3" style="stroke:#000000;stroke-width:1.0;"/><text fill="#000000" font-family="sans-serif" font-size="14" lengthAdjust="spacing" textLength="48" x="193.5" y="629.3952">id : INT</text><text fill="#000000" font-family="sans-serif" font-size="14" lengthAdjust="spacing" textLength="93" x="193.5" y="645.8834">order_id : INT</text><text fill="#000000" font-family="sans-serif" font-size="14" lengthAdjust="spacing" textLength="90" x="193.5" y="662.3717">book_id : INT</text><text fill="#000000" font-family="sans-serif" font-size="14" lengthAdjust="spacing" textLength="91" x="193.5" y="678.86">quantity : INT</text><line style="stroke:#181818;stroke-width:0.5;" x1="174.5" x2="291.5" y1="685.8131" y2="685.8131"/></g><!--link User to Cart--><g id="link_User_Cart"><path codeLine="47" d="M211.58,104.68 C181.13,133.65 147.117,165.9944 118.327,193.3844 " fill="none" id="User-to-Cart" style="stroke:#181818;stroke-width:1.0;"/><polygon fill="#181818" points="113.98,197.52,123.2576,194.2146,117.6025,194.0736,117.7434,188.4185,113.98,197.52" style="stroke:#181818;stroke-width:1.0;"/><text fill="#000000" font-family="sans-serif" font-size="13" lengthAdjust="spacing" textLength="22" x="179.38" y="148.0284">has</text><text fill="#000000" font-family="sans-serif" font-size="13" lengthAdjust="spacing" textLength="8" x="195.9272" y="125.2081">1</text><text fill="#000000" font-family="sans-serif" font-size="13" lengthAdjust="spacing" textLength="6" x="114.4361" y="187.0948">*</text></g><!--link User to Order--><g id="link_User_Order"><path codeLine="48" d="M262,104.68 C262,128.21 262,150.7 262,175.24 " fill="none" id="User-to-Order" style="stroke:#181818;stroke-width:1.0;"/><polygon fill="#181818" points="262,181.24,266,172.24,262,176.24,258,172.24,262,181.24" style="stroke:#181818;stroke-width:1.0;"/><text fill="#000000" font-family="sans-serif" font-size="13" lengthAdjust="spacing" textLength="40" x="263" y="148.0284">places</text><text fill="#000000" font-family="sans-serif" font-size="13" lengthAdjust="spacing" textLength="8" x="253.4375" y="125.2081">1</text><text fill="#000000" font-family="sans-serif" font-size="13" lengthAdjust="spacing" textLength="6" x="255.6156" y="170.539">*</text></g><!--link User to Payment--><g id="link_User_Payment"><path codeLine="49" d="M313.53,104.95 C333.71,126.52 355.27,153.4 369,181.46 C398.66,242.07 410.7975,312.7813 416.2775,366.1813 " fill="none" id="User-to-Payment" style="stroke:#181818;stroke-width:1.0;"/><polygon fill="#181818" points="416.89,372.15,419.9503,362.7887,416.3796,367.1761,411.9921,363.6054,416.89,372.15" style="stroke:#181818;stroke-width:1.0;"/><text fill="#000000" font-family="sans-serif" font-size="13" lengthAdjust="spacing" textLength="51" x="406.09" y="243.5084">initiates</text><text fill="#000000" font-family="sans-serif" font-size="13" lengthAdjust="spacing" textLength="8" x="311.9168" y="125.1606">1</text><text fill="#000000" font-family="sans-serif" font-size="13" lengthAdjust="spacing" textLength="6" x="410.1123" y="361.752">*</text></g><!--link Order to Payment--><g id="link_Order_Payment"><path codeLine="50" d="M307.35,295.68 C326.53,319.48 345.2236,342.6594 365.0936,367.2994 " fill="none" id="Order-to-Payment" style="stroke:#181818;stroke-width:1.0;"/><polygon fill="#181818" points="368.86,371.97,366.3241,362.4532,365.7213,368.0779,360.0967,367.4751,368.86,371.97" style="stroke:#181818;stroke-width:1.0;"/><text fill="#000000" font-family="sans-serif" font-size="13" lengthAdjust="spacing" textLength="22" x="342.5" y="338.9884">has</text><text fill="#000000" font-family="sans-serif" font-size="13" lengthAdjust="spacing" textLength="8" x="304.3895" y="316.1579">1</text><text fill="#000000" font-family="sans-serif" font-size="13" lengthAdjust="spacing" textLength="6" x="356.8291" y="361.5523">*</text></g><!--link Order to OrderItem--><g id="link_Order_OrderItem"><path codeLine="51" d="M257.88,295.81 C252.36,371.26 243.0575,498.316 237.5475,573.676 " fill="none" id="Order-to-OrderItem" style="stroke:#181818;stroke-width:1.0;"/><polygon fill="#181818" points="237.11,579.66,241.7556,570.9756,237.4746,574.6733,233.7769,570.3923,237.11,579.66" style="stroke:#181818;stroke-width:1.0;"/><text fill="#000000" font-family="sans-serif" font-size="13" lengthAdjust="spacing" textLength="54" x="253.25" y="442.7084">contains</text><text fill="#000000" font-family="sans-serif" font-size="13" lengthAdjust="spacing" textLength="8" x="248.9411" y="315.8973">1</text><text fill="#000000" font-family="sans-serif" font-size="13" lengthAdjust="spacing" textLength="6" x="231.2522" y="568.9616">*</text></g><!--link Book to OrderItem--><g id="link_Book_OrderItem"><path codeLine="52" d="M99.49,486.74 C110.1,507.15 123.78,530.61 139,549.86 C149.15,562.69 156.9232,571.1752 169.0532,582.6052 " fill="none" id="Book-to-OrderItem" style="stroke:#181818;stroke-width:1.0;"/><polygon fill="#181818" points="173.42,586.72,169.613,577.6367,169.781,583.291,164.1267,583.459,173.42,586.72" style="stroke:#181818;stroke-width:1.0;"/><text fill="#000000" font-family="sans-serif" font-size="13" lengthAdjust="spacing" textLength="70" x="140" y="546.4284">included in</text><text fill="#000000" font-family="sans-serif" font-size="13" lengthAdjust="spacing" textLength="8" x="93.9746" y="506.9359">1</text><text fill="#000000" font-family="sans-serif" font-size="13" lengthAdjust="spacing" textLength="6" x="159.4019" y="576.9261">*</text></g><!--link Book to Stock--><g id="link_Book_Stock"><path codeLine="53" d="M75.51,486.81 C75.07,506.37 74.76,529.19 75,549.86 C75.18,564.94 75.3714,575.5018 75.7314,590.0318 " fill="none" id="Book-to-Stock" style="stroke:#181818;stroke-width:1.0;"/><polygon fill="#181818" points="75.88,596.03,79.6559,586.9337,75.7562,591.0315,71.6583,587.1318,75.88,596.03" style="stroke:#181818;stroke-width:1.0;"/><text fill="#000000" font-family="sans-serif" font-size="13" lengthAdjust="spacing" textLength="22" x="76" y="546.4284">has</text><text fill="#000000" font-family="sans-serif" font-size="13" lengthAdjust="spacing" textLength="8" x="66.7723" y="507.0153">1</text><text fill="#000000" font-family="sans-serif" font-size="13" lengthAdjust="spacing" textLength="8" x="67.032" y="585.623">1</text></g><!--link Cart to Book--><g id="link_Cart_Book"><path codeLine="54" d="M73.01,279.34 C73.81,310.86 74.7778,348.9419 75.6278,382.4319 " fill="none" id="Cart-to-Book" style="stroke:#181818;stroke-width:1.0;"/><polygon fill="#181818" points="75.78,388.43,79.5504,379.3314,75.6531,383.4316,71.5529,379.5344,75.78,388.43" style="stroke:#181818;stroke-width:1.0;"/><text fill="#000000" font-family="sans-serif" font-size="13" lengthAdjust="spacing" textLength="91" x="75.5" y="338.9884">selected items</text><text fill="#000000" font-family="sans-serif" font-size="13" lengthAdjust="spacing" textLength="8" x="64.5522" y="299.3436">1</text><text fill="#000000" font-family="sans-serif" font-size="13" lengthAdjust="spacing" textLength="6" x="69.1866" y="378.0464">*</text></g><!--SRC=[XPBFQuCm5CVl_XKXnq8Fk_OmS4wOiBQZSsEtyXOVNPZ6pZmPClQ_xsacfgQb5sE-xvlF-v6W8KsTUB7OY9z8Y8NGXLY9R9FpPhda3rQWIvPUurto4EzOCL2X9_n64JfA0WtzKre6xZsK9gnuRrd8qxVSEtHNrvzXQWwLU9Brs6ZLA_TfagtZHu_mJBKQ4UzCy_D-jU1CJfWERPlYNClpkYq1jVQa4DKW41PxeBwQE4_pR9rwv2VeAlwzpgxx4dpXmDnlw9mq9Gngc7MHyMp3R07z-cY6Lo1l95_yhP0BwIvq9UG7M1b6tGWvV2n1uJd7E0hsQAD9StziS-Sk-8PKeMDgb3sgDWJQi75uF1TzsgYoBR0GsiojlBfdCwOSMlL9Wv-Z5ajKr4EOoiO_]--></g></svg>